<svg width="769" height="461" viewBox="0 0 769 461" fill="none" xmlns="http://www.w3.org/2000/svg">
<path d="M279.58 1.59008C364.93 1.59008 450.29 1.89008 535.65 1.40008C559.08 1.26008 582.53 1.13008 605.97 0.830078C607.97 0.830078 609.97 1.10008 611.97 1.27008C621.5 2.10008 623.97 9.72008 625.89 17.7501C646 102.18 639.62 192.1 603.8 271.51C594.26 292.68 582.59 312.62 569.7 331.85C559.592 346.975 548.483 361.407 536.45 375.05C527.486 385.24 517.961 394.921 507.92 404.05C489.02 421.16 468.92 436.77 445.55 447.49C433.163 453.09 420.024 456.85 406.55 458.65C393.05 460.54 379.49 460.52 365.95 460.23C291.11 458.61 216.26 459.87 141.42 459.53C102.68 459.36 63.9398 459.53 25.1998 459.53C21.2007 459.643 17.2086 459.127 13.3698 458C5.43979 455.42 0.619793 448.46 0.169793 439.23C0.0397926 436.61 0.0797925 433.98 0.0797925 431.36C0.0797925 297.073 0.0797925 162.787 0.0797925 28.5001C-0.0189452 24.6485 0.262417 20.7965 0.919793 17.0001C2.72979 7.79008 10.0498 2.30008 19.3398 1.74008C22.5698 1.54008 25.8198 1.63008 29.0598 1.63008C112.56 1.61674 196.066 1.60341 279.58 1.59008Z" fill="#2F4653"/>
<path d="M623.32 365.86C627.97 364.6 631.75 361.94 635.32 359.1C650.47 347 661.73 331.69 671.32 315.01C706.079 254.737 726.282 187.18 730.32 117.72C730.73 110.63 730.77 103.56 730.99 96.4803C730.99 95.4803 730.75 94.3103 731.67 93.1703C734.438 93.9696 736.991 95.3811 739.14 97.3003C765.95 121.06 770.49 166.18 767.58 199.53C760.71 278.53 717.11 362.74 647.13 403.53C645.51 404.47 643.88 405.38 642.24 406.26C631.456 411.916 620.217 416.656 608.64 420.43C606.46 421.16 604.28 421.91 602.13 422.64C614.933 421.929 627.588 419.542 639.77 415.54C679.69 402.42 711.49 372.81 733.56 337.76C738.99 329.14 743.86 320.22 748.62 311.22C748.9 310.68 749.19 310.12 749.94 309.96C750.81 309.96 751.18 310.68 751.48 311.37C762.57 336.99 759.71 363.26 744.08 386.37C713.3 431.92 648.29 459.11 594.52 459.37C544.96 459.57 495.41 459.51 445.85 459.49C444.3 459.49 441.92 460.31 441.49 458.11C441.06 455.91 443.56 456.05 445.01 455.39C520.2 420.82 577.09 360.51 614.17 286.86C646.4 222.86 662.59 150.42 656.27 78.7803C654.279 55.8175 649.998 33.1112 643.49 11.0003C643.022 9.6884 642.621 8.3533 642.29 7.00026C641.39 2.24026 642.8 1.00026 647.67 1.52026C659.557 2.66266 670.848 7.26204 680.15 14.7503C698.26 29.0103 705.21 54.8503 709.39 76.5703C717.21 117.25 709.21 162.31 699.71 202.11C687.35 253.91 666.46 304.52 636.35 348.58C633.14 353.27 629.43 357.58 625.98 362.15C625.05 363.33 624.21 364.61 623.32 365.86Z" fill="url(#paint0_linear)"/>
<path d="M194.8 195C194.73 188.61 192.74 182.17 187.1 178.59C181.61 175.1 174.31 175.17 169.99 180.48C169.64 180.91 168.89 181.64 169.11 182.27C169.33 182.9 170.69 182.76 171.26 183.04C171.707 183.28 172.073 183.648 172.312 184.096C172.55 184.545 172.651 185.054 172.6 185.56C172.6 186.77 172.6 198.43 172.51 214.49L130.11 214.24C129.489 206.38 129.957 198.472 131.5 190.74C131.84 189.04 132.23 187.36 132.67 185.68C133.15 183.84 134.48 181.58 134.34 179.68C134.334 179.419 134.246 179.168 134.09 178.96C133.71 178.49 132.99 178.57 132.4 178.72C128.74 179.69 125.361 181.513 122.54 184.04C120.473 185.948 118.728 188.176 117.37 190.64C111.93 200.39 111.51 214.19 111.51 214.19C111.23 223.11 110.88 241.19 120.38 259.96C120.38 259.96 127.05 273.12 136.57 276.36C138.45 277.01 138.96 276.58 139.13 276.36C139.87 275.41 138.28 273.77 137.81 273.05C136.949 271.702 136.196 270.287 135.56 268.82C134.273 265.774 133.318 262.599 132.71 259.35C130.584 249.545 129.578 239.531 129.71 229.5H172.52V267.27C172.446 268.495 172.72 269.716 173.309 270.794C173.898 271.871 174.779 272.76 175.85 273.36C177.278 274.003 178.808 274.392 180.37 274.51C183.073 274.935 185.827 274.935 188.53 274.51C190.126 274.26 191.619 273.567 192.84 272.51C194.73 270.76 194.76 268.39 194.76 266C194.76 247 194.93 228.05 194.91 209.08C194.897 204.426 194.86 199.733 194.8 195Z" fill="url(#paint1_linear)"/>
<path d="M136.16 281.12C118.89 276.07 112.16 257.77 108.46 241.9C107.66 238.44 106.89 235.03 106.46 231.5C105.08 220.83 105.14 209.1 108.6 198.8C105.97 199.4 104.77 201.67 103.23 203.51C97.6099 210.23 97.1598 218.08 96.8898 225.88C96.4207 237.709 99.0071 249.46 104.4 260C106.629 264.184 109.348 268.088 112.5 271.63C115.652 275.118 119.234 278.193 123.16 280.78C116.815 279.233 111.093 275.786 106.76 270.9C104.981 268.639 103.367 266.253 101.93 263.76C99.1898 259 95.7698 253.07 94.0198 245.12C93.5298 242.89 93.1998 240.62 92.3198 240.53C91.0598 240.4 89.6198 244.92 89.3198 245.89C88.5309 248.351 88.1163 250.916 88.0898 253.5C88.1598 259.5 92.6499 271.17 103.41 279.09C103.41 279.09 112.81 286.01 128.89 286.54C131.525 286.561 134.109 285.817 136.33 284.4C137.75 283.42 138.69 281.86 136.16 281.12Z" fill="url(#paint2_linear)"/>
<path d="M108.59 198.74C108.594 198.76 108.594 198.78 108.59 198.8H108.66L108.59 198.74Z" fill="url(#paint3_linear)"/>
<path d="M108.59 198.74L108.64 198.78L108.84 198.51L108.59 198.74Z" fill="url(#paint4_linear)"/>
<path d="M415.82 192.81C415.924 189.661 415.662 186.51 415.04 183.42C414.924 182.537 414.692 181.673 414.35 180.85C413.774 179.454 412.8 178.258 411.55 177.41C410.62 176.799 409.533 176.469 408.42 176.46C407.64 176.46 406.86 176.46 406.08 176.46H402.85C400.75 176.46 398.65 176.46 396.55 176.46C395.618 176.463 394.695 176.652 393.836 177.016C392.978 177.38 392.2 177.912 391.55 178.58C389.95 180.25 388.69 182.63 386.55 187.73C386.19 188.57 385.92 189.29 385.72 189.73C384.93 191.46 373.63 215.93 369.37 223.02C369.06 223.55 368.37 224.68 367.49 224.64C366.61 224.6 365.93 223.55 365.62 223.02C361.36 215.93 350.06 191.46 349.26 189.73C349.07 189.24 348.8 188.52 348.44 187.73C346.34 182.63 345.07 180.25 343.44 178.58C342.79 177.912 342.013 177.38 341.154 177.016C340.296 176.652 339.373 176.463 338.44 176.46C336.34 176.38 334.24 176.46 332.14 176.46H328.91C328.13 176.46 327.35 176.46 326.57 176.46C325.457 176.469 324.37 176.799 323.44 177.41C322.184 178.252 321.209 179.45 320.64 180.85C320.298 181.673 320.066 182.537 319.95 183.42C319.331 186.51 319.066 189.66 319.16 192.81L316.7 268.36C316.731 268.923 316.842 269.479 317.03 270.01C318.32 273.69 323.03 275.51 326.61 275.55C330.19 275.59 334.61 273.88 336.14 270.55C336.337 270.1 336.488 269.631 336.59 269.15C337.66 264.01 338.28 222.71 338.51 204.71C348.36 224.91 356.08 240.01 359.64 246.71C360.37 248.08 361.92 250.83 364.76 251.77C366.488 252.357 368.362 252.357 370.09 251.77C372.93 250.83 374.48 248.08 375.2 246.71C378.77 240.05 386.48 224.95 396.34 204.71C396.57 222.71 397.19 264.01 398.26 269.15C398.362 269.631 398.513 270.1 398.71 270.55C400.25 273.9 404.6 275.62 408.24 275.55C411.88 275.48 416.52 273.69 417.82 270.01C418.004 269.478 418.115 268.923 418.15 268.36C417.424 243.174 416.647 217.99 415.82 192.81Z" fill="url(#paint5_linear)"/>
<path d="M297.19 179.46C295.14 176.87 291.63 176.78 288.27 176.68C285.08 176.6 281.02 176.48 278.48 179.31C277.378 180.584 276.706 182.172 276.56 183.85C276.5 202.43 276.443 221.013 276.39 239.6C276.442 242.625 275.803 245.623 274.523 248.364C273.242 251.105 271.353 253.518 269 255.42C265.832 257.743 262.106 259.188 258.2 259.61C257.58 259.66 256.94 259.68 256.94 259.68H256.46H255.98C255.98 259.68 255.33 259.68 254.72 259.61C250.814 259.188 247.089 257.743 243.92 255.42C241.569 253.517 239.682 251.104 238.403 248.362C237.124 245.621 236.487 242.624 236.54 239.6L236.36 183.85C236.217 182.174 235.548 180.585 234.45 179.31C231.9 176.48 227.85 176.6 224.65 176.68C221.29 176.78 217.79 176.87 215.74 179.46C214.571 181.092 214.087 183.116 214.39 185.1V243.45C214.455 250.501 216.829 257.337 221.15 262.91C227 270.58 235.31 274 237.87 274.91C241.698 276.275 245.683 277.155 249.73 277.53C251.966 277.756 254.214 277.833 256.46 277.76C258.706 277.833 260.954 277.756 263.19 277.53C267.237 277.185 271.225 276.335 275.06 275C277.62 274.05 285.93 270.63 291.77 263C296.098 257.43 298.476 250.593 298.54 243.54V185.1C298.843 183.116 298.359 181.092 297.19 179.46V179.46Z" fill="url(#paint6_linear)"/>
<path d="M528.75 207.54C525.933 198.146 520.186 189.898 512.35 184C503.457 177.246 492.597 173.589 481.43 173.589C470.263 173.589 459.403 177.246 450.51 184C442.678 189.891 436.93 198.127 434.1 207.51C426.05 234.41 438.16 268.73 467.1 276.32C476.499 278.467 486.261 278.467 495.66 276.32C524.7 268.76 536.8 234.44 528.75 207.54ZM507.24 237.54C504.24 250.28 495.75 263.97 481.43 264.12C467.11 263.97 458.65 250.28 455.62 237.54C452.7 225.27 453.24 210.82 460.11 199.87C462.304 196.17 465.422 193.105 469.16 190.976C472.897 188.848 477.124 187.728 481.425 187.728C485.726 187.728 489.953 188.848 493.69 190.976C497.428 193.105 500.546 196.17 502.74 199.87C509.62 210.85 510.15 225.3 507.24 237.57V237.54Z" fill="url(#paint7_linear)"/>
<defs>
<linearGradient id="paint0_linear" x1="405.21" y1="300.31" x2="777.43" y2="186.05" gradientUnits="userSpaceOnUse">
<stop offset="0.33" stop-color="#9C8837"/>
<stop offset="0.56" stop-color="#F7E59E"/>
<stop offset="0.6" stop-color="#F0DE96"/>
<stop offset="0.67" stop-color="#DECB80"/>
<stop offset="0.75" stop-color="#C1AD5D"/>
<stop offset="0.79" stop-color="#B39F4D"/>
</linearGradient>
<linearGradient id="paint1_linear" x1="16003.5" y1="25450.6" x2="9551.68" y2="21394.8" gradientUnits="userSpaceOnUse">
<stop offset="0.33" stop-color="#9C8837"/>
<stop offset="0.56" stop-color="#F7E59E"/>
<stop offset="0.6" stop-color="#F0DE96"/>
<stop offset="0.67" stop-color="#DECB80"/>
<stop offset="0.75" stop-color="#C1AD5D"/>
<stop offset="0.79" stop-color="#B39F4D"/>
</linearGradient>
<linearGradient id="paint2_linear" x1="8265.94" y1="25230.3" x2="3742.98" y2="23293.6" gradientUnits="userSpaceOnUse">
<stop offset="0.33" stop-color="#9C8837"/>
<stop offset="0.56" stop-color="#F7E59E"/>
<stop offset="0.6" stop-color="#F0DE96"/>
<stop offset="0.67" stop-color="#DECB80"/>
<stop offset="0.75" stop-color="#C1AD5D"/>
<stop offset="0.79" stop-color="#B39F4D"/>
</linearGradient>
<linearGradient id="paint3_linear" x1="121.54" y1="214.249" x2="117.3" y2="210.505" gradientUnits="userSpaceOnUse">
<stop offset="0.33" stop-color="#9C8837"/>
<stop offset="0.56" stop-color="#F7E59E"/>
<stop offset="0.6" stop-color="#F0DE96"/>
<stop offset="0.67" stop-color="#DECB80"/>
<stop offset="0.75" stop-color="#C1AD5D"/>
<stop offset="0.79" stop-color="#B39F4D"/>
</linearGradient>
<linearGradient id="paint4_linear" x1="154.867" y1="268.263" x2="136.793" y2="255.595" gradientUnits="userSpaceOnUse">
<stop offset="0.33" stop-color="#9C8837"/>
<stop offset="0.56" stop-color="#F7E59E"/>
<stop offset="0.6" stop-color="#F0DE96"/>
<stop offset="0.67" stop-color="#DECB80"/>
<stop offset="0.75" stop-color="#C1AD5D"/>
<stop offset="0.79" stop-color="#B39F4D"/>
</linearGradient>
<linearGradient id="paint5_linear" x1="45386.9" y1="27200.6" x2="34690.7" y2="21394.8" gradientUnits="userSpaceOnUse">
<stop offset="0.33" stop-color="#9C8837"/>
<stop offset="0.56" stop-color="#F7E59E"/>
<stop offset="0.6" stop-color="#F0DE96"/>
<stop offset="0.67" stop-color="#DECB80"/>
<stop offset="0.75" stop-color="#C1AD5D"/>
<stop offset="0.79" stop-color="#B39F4D"/>
</linearGradient>
<linearGradient id="paint6_linear" x1="27612.9" y1="27219.5" x2="17786.1" y2="22089.4" gradientUnits="userSpaceOnUse">
<stop offset="0.33" stop-color="#9C8837"/>
<stop offset="0.56" stop-color="#F7E59E"/>
<stop offset="0.6" stop-color="#F0DE96"/>
<stop offset="0.67" stop-color="#DECB80"/>
<stop offset="0.75" stop-color="#C1AD5D"/>
<stop offset="0.79" stop-color="#B39F4D"/>
</linearGradient>
<linearGradient id="paint7_linear" x1="57417.4" y1="29774.2" x2="43927.7" y2="22306" gradientUnits="userSpaceOnUse">
<stop offset="0.33" stop-color="#9C8837"/>
<stop offset="0.56" stop-color="#F7E59E"/>
<stop offset="0.6" stop-color="#F0DE96"/>
<stop offset="0.67" stop-color="#DECB80"/>
<stop offset="0.75" stop-color="#C1AD5D"/>
<stop offset="0.79" stop-color="#B39F4D"/>
</linearGradient>
</defs>
</svg>
