<svg xmlns="http://www.w3.org/2000/svg" viewBox="0 0 407.86 469.86"><defs><style>.cls-1{fill:#203e7a;}.cls-1,.cls-2{fill-rule:evenodd;}.cls-2{fill:#f4821f;}</style></defs><g id="Слой_2" data-name="Слой 2"><g id="Layer_1" data-name="Layer 1"><g id="Uzcard_logo_white" data-name="Uzcard logo white"><g id="Group_1648" data-name="Group 1648"><g id="Group_13" data-name="Group 13"><path id="Path_17" data-name="Path 17" class="cls-1" d="M407.86,250.87q0,111-50.71,165.1-50.68,53.89-156.41,53.89Q102.07,469.86,51,416T0,253.4V10.33A10.36,10.36,0,0,1,10.32,0H129.58a10.36,10.36,0,0,1,10.33,10.33V258.71c0,29.58,5.47,52.35,16.61,68.41a60.32,60.32,0,0,0,95.15,1.43q16.32-22.6,16.27-66.63V215.41H407.86Z"/><path id="Path_18" data-name="Path 18" class="cls-1" d="M397,188.24H268V10.81A10.85,10.85,0,0,1,278.77,0h19.32A109.74,109.74,0,0,0,407.83,109.67h0v78.57Z"/><path id="Path_19" data-name="Path 19" class="cls-2" d="M325.59,0h71.46a10.84,10.84,0,0,1,10.81,10.81V82.37A82.27,82.27,0,0,1,325.59.09Z"/></g></g></g></g></g></svg>