<svg xmlns="http://www.w3.org/2000/svg" viewBox="0 0 2788.45 1252.22"><defs><style>.cls-1{fill:#ebf3fa;}.cls-2{fill:#f8fbff;}.cls-3{fill:#c4d9ed;}.cls-4{fill:#d5e7f7;}.cls-5{fill:#dceaf9;}.cls-6{opacity:0.8;}.cls-7{fill:#adc9e0;}.cls-8{fill:#abc6dd;}.cls-10,.cls-9{fill:#a8302d;}.cls-10,.cls-16,.cls-23{opacity:0.3;}.cls-11{fill:#661717;}.cls-12{fill:#c94c43;}.cls-13{fill:#631818;}.cls-14{fill:#822121;}.cls-15{fill:#a2c2dd;}.cls-16{fill:#8e2323;}.cls-17{fill:#8e2525;}.cls-18{fill:#008dff;}.cls-19{fill:#699ff0;}.cls-20{fill:#a8d29f;}.cls-21{fill:#ffb27d;}.cls-22{fill:#ffc197;}.cls-23{fill:#e2915a;}.cls-24{fill:#40abf4;}.cls-25{fill:#77d0f7;}.cls-25,.cls-28,.cls-30{opacity:0.4;}.cls-26{fill:#fbecdb;}.cls-27{fill:#fce6d2;}.cls-28{fill:#9fd3f7;}.cls-29,.cls-30{fill:#70c8f9;}</style></defs><g id="Слой_2" data-name="Слой 2"><g id="_Layer_" data-name="&lt;Layer&gt;"><path class="cls-1" d="M2628.08,1248.79s-134,.22-338.28.66c-598.24,1.09-1800.07,3-2009.72,2.07-281.32-1.31-475.94-729.27,50.1-679.82,571.34,53.58,153.45-274.24,490-328.59,366.26-59.24,440.1,168.6,703.12,75.48,359.51-127.32,554.79-83,679.93,9.91,137.23,101.94,189.83,262.37,282,318.45q3.11,2,6.21,3.6c179,98,260.07,192.88,286.54,277.07C2837,1114.4,2628.08,1248.79,2628.08,1248.79Z"/><path class="cls-2" d="M2485.22,647,1128.09,877.75,1026.75,756.23,2203.2,328.51C2340.45,430.45,2393.1,590.83,2485.22,647Z"/><path class="cls-2" d="M1776.66,360.24,433.7,793c39.56-28.84-51.42-185.19,2-237.07Z"/><path class="cls-2" d="M1941.83,287.24a32.37,32.37,0,1,0,32.37,32.37A32.37,32.37,0,0,0,1941.83,287.24Z"/><rect class="cls-3" x="1522.85" y="392.89" width="153.23" height="745.13"/><rect class="cls-4" x="1557.27" y="392.89" width="153.23" height="745.13"/><rect class="cls-3" x="1557.3" y="392.69" width="153.19" height="43.06" transform="translate(3267.8 828.44) rotate(180)"/><rect class="cls-3" x="1557.3" y="486.08" width="153.19" height="43.06" transform="translate(3267.8 1015.21) rotate(180)"/><rect class="cls-3" x="1557.3" y="579.46" width="153.19" height="43.06" transform="translate(3267.8 1201.98) rotate(180)"/><rect class="cls-3" x="1557.3" y="672.85" width="153.19" height="43.06" transform="translate(3267.8 1388.75) rotate(180)"/><rect class="cls-3" x="1557.3" y="766.23" width="153.19" height="43.06" transform="translate(3267.8 1575.52) rotate(180)"/><rect class="cls-3" x="1557.3" y="859.62" width="153.19" height="43.06" transform="translate(3267.8 1762.29) rotate(180)"/><rect class="cls-3" x="1557.3" y="953.01" width="153.19" height="43.06" transform="translate(3267.8 1949.07) rotate(180)"/><rect class="cls-3" x="1557.3" y="1046.39" width="153.19" height="43.06" transform="translate(3267.8 2135.84) rotate(180)"/><rect class="cls-3" x="1767.8" y="498.32" width="153.23" height="639.69"/><rect class="cls-4" x="1802.21" y="498.32" width="153.23" height="639.69"/><rect class="cls-3" x="1802.25" y="498.15" width="153.19" height="36.96" transform="translate(3757.69 1033.27) rotate(180)"/><rect class="cls-3" x="1802.25" y="578.33" width="153.19" height="36.96" transform="translate(3757.69 1193.62) rotate(180)"/><rect class="cls-3" x="1802.25" y="658.5" width="153.19" height="36.96" transform="translate(3757.69 1353.96) rotate(180)"/><rect class="cls-3" x="1802.25" y="738.67" width="153.19" height="36.96" transform="translate(3757.69 1514.3) rotate(180)"/><rect class="cls-3" x="1802.25" y="818.84" width="153.19" height="36.96" transform="translate(3757.69 1674.65) rotate(180)"/><rect class="cls-3" x="1802.25" y="899.01" width="153.19" height="36.96" transform="translate(3757.69 1834.99) rotate(180)"/><rect class="cls-3" x="1802.25" y="979.18" width="153.19" height="36.96" transform="translate(3757.69 1995.33) rotate(180)"/><rect class="cls-3" x="1802.25" y="1059.36" width="153.19" height="36.96" transform="translate(3757.69 2155.68) rotate(180)"/><rect class="cls-5" x="1439.92" y="1115.16" width="64.17" height="93.57" transform="translate(2944.01 2323.89) rotate(180)"/><path class="cls-4" d="M1459.52,987.52v259.77H779.84l-4.63,0-173.46-1.63c-.15-.26-.32-.56-.53-.91l-1-1.76c-.13-.24-.27-.48-.42-.74-.52-.93-1.1-2-1.75-3.15-.79-1.45-1.68-3.1-2.66-4.93h0c-3.65-6.84-8.49-16.32-14-28.1q-2.71-5.8-5.61-12.35-1.15-2.6-2.32-5.31h0c-.76-1.74-1.52-3.53-2.28-5.35l-.08-.18c-.52-1.25-1.06-2.51-1.59-3.81s-1.1-2.65-1.66-4c-2.84-7-5.74-14.38-8.63-22.19-.08-.2-.15-.41-.23-.62h0q-2.84-7.65-5.64-15.82c-1-3-2-6-3.06-9.1l-.18-.58c-.45-1.37-.89-2.73-1.34-4.12-.37-1.16-.74-2.33-1.1-3.5q-1.14-3.63-2.27-7.33c-1-3.16-1.92-6.38-2.86-9.63q-1.9-6.63-3.71-13.48c-.37-1.37-.73-2.74-1.09-4.12-1.06-4.13-2.11-8.31-3.12-12.54-.33-1.36-.65-2.72-1-4.09-.21-.84-.4-1.69-.59-2.53q-2.3-10-4.34-20.47-2.24-11.48-4.1-23.38-1.71-11-3.06-22.31-1.26-10.66-2.14-21.6c-1.39-17.05-2-34.56-1.75-52.39a487.05,487.05,0,0,1,10.72-95.5c.25-1.18.51-2.35.77-3.54Q531.78,814.6,535,803q2.47-8.87,5.34-17.73,2.1-6.42,4.4-12.86,5.21-14.57,11.61-29.13H560v-8c23.19-50,57.37-99.6,106-146.48l2.73-2.62h2.84v99.37h87.95V523.56h97V628.67H878.7V503.18h97V738.46h122.73V875.65h45.85v34.56h105.33V850.7h60.48V689h74.7V987.52Z"/><rect class="cls-3" x="878.7" y="519.07" width="97.09" height="23.97" transform="translate(1854.49 1062.1) rotate(180)"/><rect class="cls-3" x="878.7" y="564.1" width="97.09" height="23.97" transform="translate(1854.49 1152.17) rotate(180)"/><rect class="cls-3" x="878.7" y="604.62" width="97.09" height="23.97" transform="translate(1854.49 1233.21) rotate(180)"/><rect class="cls-3" x="759.56" y="604.62" width="97.09" height="23.97" transform="translate(1616.21 1233.21) rotate(180)"/><rect class="cls-3" x="759.56" y="564.1" width="97.09" height="23.97" transform="translate(1616.21 1152.17) rotate(180)"/><rect class="cls-3" x="759.56" y="523.65" width="97.09" height="23.97" transform="translate(1616.21 1071.26) rotate(180)"/><rect class="cls-3" x="759.53" y="643.9" width="216.26" height="23.97" transform="translate(1735.32 1311.77) rotate(180)"/><rect class="cls-3" x="759.53" y="683.19" width="216.26" height="23.97" transform="translate(1735.32 1390.34) rotate(180)"/><rect class="cls-3" x="1309.42" y="688.99" width="75.36" height="37" transform="translate(2694.21 1414.99) rotate(180)"/><rect class="cls-3" x="1309.42" y="744.02" width="75.36" height="37" transform="translate(2694.21 1525.05) rotate(180)"/><rect class="cls-3" x="1309.42" y="799.05" width="75.36" height="37" transform="translate(2694.21 1635.11) rotate(180)"/><rect class="cls-3" x="1309.42" y="856.73" width="75.36" height="37" transform="translate(2694.21 1750.47) rotate(180)"/><rect class="cls-3" x="1309.42" y="912.63" width="75.36" height="37" transform="translate(2694.21 1862.27) rotate(180)"/><rect class="cls-3" x="1309.42" y="968.53" width="75.36" height="37" transform="translate(2694.21 1974.06) rotate(180)"/><rect class="cls-3" x="1309.42" y="1027.01" width="75.36" height="37" transform="translate(2694.21 2091.02) rotate(180)"/><rect class="cls-3" x="759.53" y="721.58" width="216.26" height="15.22" transform="translate(1735.32 1458.37) rotate(180)"/><rect class="cls-3" x="1282.68" y="688.99" width="27.79" height="161.71"/><rect class="cls-3" x="1193.75" y="850.7" width="55.89" height="59.52"/><path class="cls-3" d="M759.56,523.65v24l0,96.28v41.58H740.27V525.55l2.6-1.9Z"/><rect class="cls-3" x="866.86" y="503.18" width="11.84" height="125.4"/><g class="cls-6"><rect class="cls-3" x="1061.96" y="762.06" width="16.45" height="23.19" transform="translate(2140.36 1547.31) rotate(180)"/><rect class="cls-3" x="1031.19" y="762.06" width="16.45" height="23.19" transform="translate(2078.84 1547.31) rotate(180)"/><rect class="cls-3" x="1001.12" y="762.06" width="16.45" height="23.19" transform="translate(2018.69 1547.31) rotate(180)"/><rect class="cls-3" x="972.61" y="762.06" width="16.45" height="23.19" transform="translate(1961.66 1547.31) rotate(180)"/><rect class="cls-3" x="943.55" y="762.06" width="16.45" height="23.19" transform="translate(1903.54 1547.31) rotate(180)"/><rect class="cls-3" x="914.15" y="762.06" width="16.45" height="23.19" transform="translate(1844.75 1547.31) rotate(180)"/><rect class="cls-3" x="883.39" y="762.06" width="16.45" height="23.19" transform="translate(1783.23 1547.31) rotate(180)"/><rect class="cls-3" x="853.32" y="762.06" width="16.45" height="23.19" transform="translate(1723.08 1547.31) rotate(180)"/><rect class="cls-3" x="824.8" y="762.06" width="16.45" height="23.19" transform="translate(1666.05 1547.31) rotate(180)"/><rect class="cls-3" x="795.74" y="762.06" width="16.45" height="23.19" transform="translate(1607.93 1547.31) rotate(180)"/><rect class="cls-3" x="765.46" y="762.06" width="16.45" height="23.19" transform="translate(1547.36 1547.31) rotate(180)"/><rect class="cls-3" x="734.69" y="762.06" width="16.45" height="23.19" transform="translate(1485.84 1547.31) rotate(180)"/><rect class="cls-3" x="704.62" y="762.06" width="16.45" height="23.19" transform="translate(1425.69 1547.31) rotate(180)"/><rect class="cls-3" x="676.11" y="762.06" width="16.45" height="23.19" transform="translate(1368.66 1547.31) rotate(180)"/><rect class="cls-3" x="647.05" y="762.06" width="16.45" height="23.19" transform="translate(1310.54 1547.31) rotate(180)"/><rect class="cls-3" x="617.65" y="762.06" width="16.45" height="23.19" transform="translate(1251.75 1547.31) rotate(180)"/><rect class="cls-3" x="586.89" y="762.06" width="16.45" height="23.19" transform="translate(1190.23 1547.31) rotate(180)"/><rect class="cls-3" x="556.81" y="762.06" width="16.45" height="23.19" transform="translate(1130.08 1547.31) rotate(180)"/><path class="cls-3" d="M544.76,772.39v12.86h-4.4Q542.46,778.83,544.76,772.39Z"/><rect class="cls-3" x="1061.96" y="802.98" width="16.45" height="23.19" transform="translate(2140.36 1629.14) rotate(180)"/><rect class="cls-3" x="1031.19" y="802.98" width="16.45" height="23.19" transform="translate(2078.84 1629.14) rotate(180)"/><rect class="cls-3" x="1001.12" y="802.98" width="16.45" height="23.19" transform="translate(2018.69 1629.14) rotate(180)"/><rect class="cls-3" x="972.61" y="802.98" width="16.45" height="23.19" transform="translate(1961.66 1629.14) rotate(180)"/><rect class="cls-3" x="943.55" y="802.98" width="16.45" height="23.19" transform="translate(1903.54 1629.14) rotate(180)"/><rect class="cls-3" x="914.15" y="802.98" width="16.45" height="23.19" transform="translate(1844.75 1629.14) rotate(180)"/><rect class="cls-3" x="883.39" y="802.98" width="16.45" height="23.19" transform="translate(1783.23 1629.14) rotate(180)"/><rect class="cls-3" x="853.32" y="802.98" width="16.45" height="23.19" transform="translate(1723.08 1629.14) rotate(180)"/><rect class="cls-3" x="824.8" y="802.98" width="16.45" height="23.19" transform="translate(1666.05 1629.14) rotate(180)"/><rect class="cls-3" x="795.74" y="802.98" width="16.45" height="23.19" transform="translate(1607.93 1629.14) rotate(180)"/><rect class="cls-3" x="765.46" y="802.98" width="16.45" height="23.19" transform="translate(1547.36 1629.14) rotate(180)"/><rect class="cls-3" x="734.69" y="802.98" width="16.45" height="23.19" transform="translate(1485.84 1629.14) rotate(180)"/><rect class="cls-3" x="704.62" y="802.98" width="16.45" height="23.19" transform="translate(1425.69 1629.14) rotate(180)"/><rect class="cls-3" x="676.11" y="802.98" width="16.45" height="23.19" transform="translate(1368.66 1629.14) rotate(180)"/><rect class="cls-3" x="647.05" y="802.98" width="16.45" height="23.19" transform="translate(1310.54 1629.14) rotate(180)"/><rect class="cls-3" x="617.65" y="802.98" width="16.45" height="23.19" transform="translate(1251.75 1629.14) rotate(180)"/><rect class="cls-3" x="586.89" y="802.98" width="16.45" height="23.19" transform="translate(1190.23 1629.14) rotate(180)"/><rect class="cls-3" x="556.81" y="802.98" width="16.45" height="23.19" transform="translate(1130.08 1629.14) rotate(180)"/><path class="cls-3" d="M544.76,803v23.18H529.18Q531.78,814.6,535,803Z"/><rect class="cls-3" x="1061.96" y="843.27" width="16.45" height="23.19" transform="translate(2140.36 1709.72) rotate(180)"/><rect class="cls-3" x="1031.19" y="843.27" width="16.45" height="23.19" transform="translate(2078.84 1709.72) rotate(180)"/><rect class="cls-3" x="1001.12" y="843.27" width="16.45" height="23.19" transform="translate(2018.69 1709.72) rotate(180)"/><rect class="cls-3" x="972.61" y="843.27" width="16.45" height="23.19" transform="translate(1961.66 1709.72) rotate(180)"/><rect class="cls-3" x="943.55" y="843.27" width="16.45" height="23.19" transform="translate(1903.54 1709.72) rotate(180)"/><rect class="cls-3" x="914.15" y="843.27" width="16.45" height="23.19" transform="translate(1844.75 1709.72) rotate(180)"/><rect class="cls-3" x="883.39" y="843.27" width="16.45" height="23.19" transform="translate(1783.23 1709.72) rotate(180)"/><rect class="cls-3" x="853.32" y="843.27" width="16.45" height="23.19" transform="translate(1723.08 1709.72) rotate(180)"/><rect class="cls-3" x="824.8" y="843.27" width="16.45" height="23.19" transform="translate(1666.05 1709.72) rotate(180)"/><rect class="cls-3" x="795.74" y="843.27" width="16.45" height="23.19" transform="translate(1607.93 1709.72) rotate(180)"/><rect class="cls-3" x="765.46" y="843.27" width="16.45" height="23.19" transform="translate(1547.36 1709.72) rotate(180)"/><rect class="cls-3" x="734.69" y="843.27" width="16.45" height="23.19" transform="translate(1485.84 1709.72) rotate(180)"/><rect class="cls-3" x="704.62" y="843.27" width="16.45" height="23.19" transform="translate(1425.69 1709.72) rotate(180)"/><rect class="cls-3" x="676.11" y="843.27" width="16.45" height="23.19" transform="translate(1368.66 1709.72) rotate(180)"/><rect class="cls-3" x="647.05" y="843.27" width="16.45" height="23.19" transform="translate(1310.54 1709.72) rotate(180)"/><rect class="cls-3" x="617.65" y="843.27" width="16.45" height="23.19" transform="translate(1251.75 1709.72) rotate(180)"/><rect class="cls-3" x="586.89" y="843.27" width="16.45" height="23.19" transform="translate(1190.23 1709.72) rotate(180)"/><rect class="cls-3" x="556.81" y="843.27" width="16.45" height="23.19" transform="translate(1130.08 1709.72) rotate(180)"/><rect class="cls-3" x="528.3" y="843.27" width="16.45" height="23.19" transform="translate(1073.05 1709.72) rotate(180)"/><rect class="cls-3" x="1061.96" y="886.07" width="16.45" height="23.19" transform="translate(2140.36 1795.34) rotate(180)"/><rect class="cls-3" x="1031.19" y="886.07" width="16.45" height="23.19" transform="translate(2078.84 1795.34) rotate(180)"/><rect class="cls-3" x="1001.12" y="886.07" width="16.45" height="23.19" transform="translate(2018.69 1795.34) rotate(180)"/><rect class="cls-3" x="972.61" y="886.07" width="16.45" height="23.19" transform="translate(1961.66 1795.34) rotate(180)"/><rect class="cls-3" x="943.55" y="886.07" width="16.45" height="23.19" transform="translate(1903.54 1795.34) rotate(180)"/><rect class="cls-3" x="914.15" y="886.07" width="16.45" height="23.19" transform="translate(1844.75 1795.34) rotate(180)"/><rect class="cls-3" x="883.39" y="886.07" width="16.45" height="23.19" transform="translate(1783.23 1795.34) rotate(180)"/><rect class="cls-3" x="853.32" y="886.07" width="16.45" height="23.19" transform="translate(1723.08 1795.34) rotate(180)"/><rect class="cls-3" x="824.8" y="886.07" width="16.45" height="23.19" transform="translate(1666.05 1795.34) rotate(180)"/><rect class="cls-3" x="795.74" y="886.07" width="16.45" height="23.19" transform="translate(1607.93 1795.34) rotate(180)"/><rect class="cls-3" x="765.46" y="886.07" width="16.45" height="23.19" transform="translate(1547.36 1795.34) rotate(180)"/><rect class="cls-3" x="734.69" y="886.07" width="16.45" height="23.19" transform="translate(1485.84 1795.34) rotate(180)"/><rect class="cls-3" x="704.62" y="886.07" width="16.45" height="23.19" transform="translate(1425.69 1795.34) rotate(180)"/><rect class="cls-3" x="676.11" y="886.07" width="16.45" height="23.19" transform="translate(1368.66 1795.34) rotate(180)"/><rect class="cls-3" x="647.05" y="886.07" width="16.45" height="23.19" transform="translate(1310.54 1795.34) rotate(180)"/><rect class="cls-3" x="617.65" y="886.07" width="16.45" height="23.19" transform="translate(1251.75 1795.34) rotate(180)"/><rect class="cls-3" x="586.89" y="886.07" width="16.45" height="23.19" transform="translate(1190.23 1795.34) rotate(180)"/><rect class="cls-3" x="556.81" y="886.07" width="16.45" height="23.19" transform="translate(1130.08 1795.34) rotate(180)"/><rect class="cls-3" x="528.3" y="886.07" width="16.45" height="23.19" transform="translate(1073.05 1795.34) rotate(180)"/><rect class="cls-3" x="1061.96" y="926.99" width="16.45" height="23.19" transform="translate(2140.36 1877.17) rotate(180)"/><rect class="cls-3" x="1031.19" y="926.99" width="16.45" height="23.19" transform="translate(2078.84 1877.17) rotate(180)"/><rect class="cls-3" x="1001.12" y="926.99" width="16.45" height="23.19" transform="translate(2018.69 1877.17) rotate(180)"/><rect class="cls-3" x="972.61" y="926.99" width="16.45" height="23.19" transform="translate(1961.66 1877.17) rotate(180)"/><rect class="cls-3" x="943.55" y="926.99" width="16.45" height="23.19" transform="translate(1903.54 1877.17) rotate(180)"/><rect class="cls-3" x="914.15" y="926.99" width="16.45" height="23.19" transform="translate(1844.75 1877.17) rotate(180)"/><rect class="cls-3" x="883.39" y="926.99" width="16.45" height="23.19" transform="translate(1783.23 1877.17) rotate(180)"/><rect class="cls-3" x="853.32" y="926.99" width="16.45" height="23.19" transform="translate(1723.08 1877.17) rotate(180)"/><rect class="cls-3" x="824.8" y="926.99" width="16.45" height="23.19" transform="translate(1666.05 1877.17) rotate(180)"/><rect class="cls-3" x="795.74" y="926.99" width="16.45" height="23.19" transform="translate(1607.93 1877.17) rotate(180)"/><rect class="cls-3" x="765.46" y="926.99" width="16.45" height="23.19" transform="translate(1547.36 1877.17) rotate(180)"/><rect class="cls-3" x="734.69" y="926.99" width="16.45" height="23.19" transform="translate(1485.84 1877.17) rotate(180)"/><rect class="cls-3" x="704.62" y="926.99" width="16.45" height="23.19" transform="translate(1425.69 1877.17) rotate(180)"/><rect class="cls-3" x="676.11" y="926.99" width="16.45" height="23.19" transform="translate(1368.66 1877.17) rotate(180)"/><rect class="cls-3" x="647.05" y="926.99" width="16.45" height="23.19" transform="translate(1310.54 1877.17) rotate(180)"/><rect class="cls-3" x="617.65" y="926.99" width="16.45" height="23.19" transform="translate(1251.75 1877.17) rotate(180)"/><rect class="cls-3" x="586.89" y="926.99" width="16.45" height="23.19" transform="translate(1190.23 1877.17) rotate(180)"/><rect class="cls-3" x="556.81" y="926.99" width="16.45" height="23.19" transform="translate(1130.08 1877.17) rotate(180)"/><rect class="cls-3" x="528.3" y="926.99" width="16.45" height="23.19" transform="translate(1073.05 1877.17) rotate(180)"/><rect class="cls-3" x="1061.96" y="967.28" width="16.45" height="23.19" transform="translate(2140.36 1957.74) rotate(180)"/><rect class="cls-3" x="1031.19" y="967.28" width="16.45" height="23.19" transform="translate(2078.84 1957.74) rotate(180)"/><rect class="cls-3" x="1001.12" y="967.28" width="16.45" height="23.19" transform="translate(2018.69 1957.74) rotate(180)"/><rect class="cls-3" x="972.61" y="967.28" width="16.45" height="23.19" transform="translate(1961.66 1957.74) rotate(180)"/><rect class="cls-3" x="943.55" y="967.28" width="16.45" height="23.19" transform="translate(1903.54 1957.74) rotate(180)"/><rect class="cls-3" x="914.15" y="967.28" width="16.45" height="23.19" transform="translate(1844.75 1957.74) rotate(180)"/><rect class="cls-3" x="883.39" y="967.28" width="16.45" height="23.19" transform="translate(1783.23 1957.74) rotate(180)"/><rect class="cls-3" x="853.32" y="967.28" width="16.45" height="23.19" transform="translate(1723.08 1957.74) rotate(180)"/><rect class="cls-3" x="824.8" y="967.28" width="16.45" height="23.19" transform="translate(1666.05 1957.74) rotate(180)"/><rect class="cls-3" x="795.74" y="967.28" width="16.45" height="23.19" transform="translate(1607.93 1957.74) rotate(180)"/><rect class="cls-3" x="765.46" y="967.28" width="16.45" height="23.19" transform="translate(1547.36 1957.74) rotate(180)"/><rect class="cls-3" x="734.69" y="967.28" width="16.45" height="23.19" transform="translate(1485.84 1957.74) rotate(180)"/><rect class="cls-3" x="704.62" y="967.28" width="16.45" height="23.19" transform="translate(1425.69 1957.74) rotate(180)"/><rect class="cls-3" x="676.11" y="967.28" width="16.45" height="23.19" transform="translate(1368.66 1957.74) rotate(180)"/><rect class="cls-3" x="647.05" y="967.28" width="16.45" height="23.19" transform="translate(1310.54 1957.74) rotate(180)"/><rect class="cls-3" x="617.65" y="967.28" width="16.45" height="23.19" transform="translate(1251.75 1957.74) rotate(180)"/><rect class="cls-3" x="586.89" y="967.28" width="16.45" height="23.19" transform="translate(1190.23 1957.74) rotate(180)"/><rect class="cls-3" x="556.81" y="967.28" width="16.45" height="23.19" transform="translate(1130.08 1957.74) rotate(180)"/><rect class="cls-3" x="528.3" y="967.28" width="16.45" height="23.19" transform="translate(1073.05 1957.74) rotate(180)"/></g><rect class="cls-3" x="812.47" y="1039.92" width="381.28" height="205.69" transform="translate(2006.22 2285.54) rotate(180)"/><rect class="cls-3" x="1101.59" y="1142.77" width="381.28" height="102.85" transform="translate(2584.45 2388.38) rotate(180)"/><path class="cls-3" d="M781.9,1072v173.65H601.75c-.15-.26-.32-.56-.53-.91l-1-1.76c-.13-.24-.27-.48-.42-.74-.52-.93-1.1-2-1.75-3.15-.79-1.45-1.68-3.1-2.66-4.93h0c-3.65-6.84-8.49-16.32-14-28.1q-2.71-5.8-5.61-12.35-1.15-2.6-2.32-5.31h0c-.76-1.74-1.52-3.53-2.28-5.35l-.08-.18c-.52-1.25-1.06-2.51-1.59-3.81s-1.1-2.65-1.66-4c-2.84-7-5.74-14.38-8.63-22.19-.08-.2-.15-.41-.23-.62h0q-2.84-7.65-5.64-15.82c-1-3-2-6-3.06-9.1l-.18-.58c-.45-1.37-.89-2.73-1.34-4.12-.37-1.16-.74-2.33-1.1-3.5q-1.14-3.63-2.27-7.33c-1-3.16-1.92-6.38-2.86-9.63q-1.9-6.63-3.71-13.48c-.37-1.37-.73-2.74-1.09-4.12-1.06-4.13-2.11-8.31-3.12-12.54Z"/><rect class="cls-4" x="1097.24" y="1064.01" width="71.04" height="38.1" transform="translate(2265.52 2166.12) rotate(180)"/><rect class="cls-4" x="1006.05" y="1064.01" width="71.04" height="38.1" transform="translate(2083.15 2166.12) rotate(180)"/><rect class="cls-4" x="916.6" y="1064.01" width="71.04" height="38.1" transform="translate(1904.24 2166.12) rotate(180)"/><rect class="cls-4" x="828.87" y="1064.01" width="71.04" height="38.1" transform="translate(1728.78 2166.12) rotate(180)"/><rect class="cls-7" x="779.84" y="1039.92" width="36.6" height="207.46" transform="translate(1596.27 2287.31) rotate(180)"/><rect class="cls-5" x="1367.8" y="672.89" width="1.98" height="16.1" transform="translate(2737.58 1361.88) rotate(180)"/><rect class="cls-5" x="1296.6" y="672.89" width="1.98" height="16.1" transform="translate(2595.18 1361.88) rotate(180)"/><path class="cls-4" d="M521.58,999.19q1.33,11.32,3.06,22.31,1.85,11.89,4.1,23.38,2,10.42,4.34,20.47c.19.84.38,1.69.59,2.53.31,1.37.63,2.73,1,4.09,1,4.23,2.06,8.41,3.12,12.54.36,1.38.72,2.75,1.09,4.12q1.8,6.86,3.71,13.48c.94,3.25,1.89,6.47,2.86,9.63q1.13,3.71,2.27,7.33c.36,1.17.73,2.34,1.1,3.5.45,1.39.89,2.75,1.34,4.12l.18.58c1,3.08,2,6.11,3.06,9.1q2.8,8.16,5.64,15.82h0c.08.21.15.42.23.62,2.89,7.81,5.79,15.22,8.63,22.19.56,1.35,1.11,2.69,1.66,4s1.07,2.56,1.59,3.81l.08.18V999.19Z"/><path class="cls-4" d="M571.19,1067.88V1183l-.08-.18c-.52-1.25-1.06-2.51-1.59-3.81s-1.1-2.65-1.66-4c-2.84-7-5.74-14.38-8.63-22.19-.08-.2-.15-.41-.23-.62h0q-2.84-7.65-5.64-15.82c-1-3-2-6-3.06-9.1l-.18-.58c-.45-1.37-.89-2.73-1.34-4.12-.37-1.16-.74-2.33-1.1-3.5q-1.14-3.63-2.27-7.33c-1-3.16-1.92-6.38-2.86-9.63q-1.9-6.63-3.71-13.48c-.37-1.37-.73-2.74-1.09-4.12-1.06-4.13-2.11-8.31-3.12-12.54-.33-1.36-.65-2.72-1-4.09Z"/><path class="cls-3" d="M571.19,1044.88v57.23H542.55q-1.9-6.63-3.71-13.48c-.37-1.37-.73-2.74-1.09-4.12-1.06-4.13-2.11-8.31-3.12-12.54-.33-1.36-.65-2.72-1-4.09-.21-.84-.4-1.69-.59-2.53q-2.3-10-4.34-20.47Z"/><path class="cls-3" d="M553.36,1119.07v17.3c-1-3-2-6-3.06-9.1l-.18-.58c-.45-1.37-.89-2.73-1.34-4.12-.37-1.16-.74-2.33-1.1-3.5Z"/><rect class="cls-7" x="539.92" y="1060.96" width="11.3" height="19.55" transform="translate(1091.14 2141.47) rotate(180)"/><rect class="cls-4" x="1410.69" y="1067.89" width="261.79" height="176.06" transform="translate(3083.17 2311.83) rotate(180)"/><rect class="cls-3" x="1410.69" y="1044.88" width="261.79" height="57.22" transform="translate(3083.17 2146.99) rotate(180)"/><rect class="cls-3" x="1641.21" y="1119.07" width="13.45" height="18.95" transform="translate(3295.87 2257.08) rotate(180)"/><rect class="cls-3" x="1616.07" y="1119.07" width="13.45" height="18.95" transform="translate(3245.58 2257.08) rotate(180)"/><rect class="cls-3" x="1591.49" y="1119.07" width="13.45" height="18.95" transform="translate(3196.42 2257.08) rotate(180)"/><rect class="cls-3" x="1568.18" y="1119.07" width="13.44" height="18.95" transform="translate(3149.81 2257.08) rotate(180)"/><rect class="cls-3" x="1544.43" y="1119.07" width="13.45" height="18.95" transform="translate(3102.31 2257.08) rotate(180)"/><rect class="cls-3" x="1520.41" y="1119.07" width="13.45" height="18.95" transform="translate(3054.26 2257.08) rotate(180)"/><rect class="cls-3" x="1495.26" y="1119.07" width="13.45" height="18.95" transform="translate(3003.97 2257.08) rotate(180)"/><rect class="cls-3" x="1470.68" y="1119.07" width="13.45" height="18.95" transform="translate(2954.81 2257.08) rotate(180)"/><rect class="cls-3" x="1447.38" y="1119.07" width="13.45" height="18.95" transform="translate(2908.2 2257.08) rotate(180)"/><rect class="cls-3" x="1423.63" y="1119.07" width="13.44" height="18.95" transform="translate(2860.7 2257.08) rotate(180)"/><rect class="cls-3" x="1641.21" y="1152.51" width="13.45" height="18.95" transform="translate(3295.87 2323.97) rotate(180)"/><rect class="cls-3" x="1616.07" y="1152.51" width="13.45" height="18.95" transform="translate(3245.58 2323.97) rotate(180)"/><rect class="cls-3" x="1591.49" y="1152.51" width="13.45" height="18.95" transform="translate(3196.42 2323.97) rotate(180)"/><rect class="cls-3" x="1568.18" y="1152.51" width="13.44" height="18.95" transform="translate(3149.81 2323.97) rotate(180)"/><rect class="cls-3" x="1544.43" y="1152.51" width="13.45" height="18.95" transform="translate(3102.31 2323.97) rotate(180)"/><rect class="cls-3" x="1520.41" y="1152.51" width="13.45" height="18.95" transform="translate(3054.26 2323.97) rotate(180)"/><rect class="cls-3" x="1495.26" y="1152.51" width="13.45" height="18.95" transform="translate(3003.97 2323.97) rotate(180)"/><rect class="cls-3" x="1470.68" y="1152.51" width="13.45" height="18.95" transform="translate(2954.81 2323.97) rotate(180)"/><rect class="cls-3" x="1447.38" y="1152.51" width="13.45" height="18.95" transform="translate(2908.2 2323.97) rotate(180)"/><rect class="cls-3" x="1423.63" y="1152.51" width="13.44" height="18.95" transform="translate(2860.7 2323.97) rotate(180)"/><rect class="cls-3" x="1641.21" y="1185.44" width="13.45" height="18.95" transform="translate(3295.87 2389.82) rotate(180)"/><rect class="cls-3" x="1616.07" y="1185.44" width="13.45" height="18.95" transform="translate(3245.58 2389.82) rotate(180)"/><rect class="cls-3" x="1591.49" y="1185.44" width="13.45" height="18.95" transform="translate(3196.42 2389.82) rotate(180)"/><rect class="cls-3" x="1568.18" y="1185.44" width="13.44" height="18.95" transform="translate(3149.81 2389.82) rotate(180)"/><rect class="cls-3" x="1544.43" y="1185.44" width="13.45" height="18.95" transform="translate(3102.31 2389.82) rotate(180)"/><rect class="cls-3" x="1520.41" y="1185.44" width="13.45" height="18.95" transform="translate(3054.26 2389.82) rotate(180)"/><rect class="cls-3" x="1495.26" y="1185.44" width="13.45" height="18.95" transform="translate(3003.97 2389.82) rotate(180)"/><rect class="cls-3" x="1470.68" y="1185.44" width="13.45" height="18.95" transform="translate(2954.81 2389.82) rotate(180)"/><rect class="cls-3" x="1447.38" y="1185.44" width="13.45" height="18.95" transform="translate(2908.2 2389.82) rotate(180)"/><rect class="cls-3" x="1423.63" y="1185.44" width="13.44" height="18.95" transform="translate(2860.7 2389.82) rotate(180)"/><rect class="cls-7" x="1641.21" y="1060.96" width="11.3" height="19.55" transform="translate(3293.72 2141.47) rotate(180)"/><rect class="cls-7" x="1529.04" y="1060.96" width="11.3" height="19.55" transform="translate(3069.39 2141.47) rotate(180)"/><rect class="cls-7" x="1439.82" y="1060.96" width="11.3" height="19.55" transform="translate(2890.93 2141.47) rotate(180)"/><rect class="cls-4" x="1688.92" y="1067.89" width="261.79" height="176.06" transform="translate(3639.64 2311.83) rotate(180)"/><rect class="cls-3" x="1688.92" y="1044.88" width="261.79" height="57.22" transform="translate(3639.64 2146.99) rotate(180)"/><rect class="cls-3" x="1919.44" y="1119.07" width="13.45" height="18.95" transform="translate(3852.33 2257.08) rotate(180)"/><rect class="cls-3" x="1894.3" y="1119.07" width="13.45" height="18.95" transform="translate(3802.05 2257.08) rotate(180)"/><rect class="cls-3" x="1869.72" y="1119.07" width="13.44" height="18.95" transform="translate(3752.89 2257.08) rotate(180)"/><rect class="cls-3" x="1846.42" y="1119.07" width="13.44" height="18.95" transform="translate(3706.28 2257.08) rotate(180)"/><rect class="cls-3" x="1822.66" y="1119.07" width="13.45" height="18.95" transform="translate(3658.77 2257.08) rotate(180)"/><rect class="cls-3" x="1798.64" y="1119.07" width="13.45" height="18.95" transform="translate(3610.73 2257.08) rotate(180)"/><rect class="cls-3" x="1773.5" y="1119.07" width="13.44" height="18.95" transform="translate(3560.44 2257.08) rotate(180)"/><rect class="cls-3" x="1748.92" y="1119.07" width="13.44" height="18.95" transform="translate(3511.28 2257.08) rotate(180)"/><rect class="cls-3" x="1725.61" y="1119.07" width="13.45" height="18.95" transform="translate(3464.67 2257.08) rotate(180)"/><rect class="cls-3" x="1701.86" y="1119.07" width="13.45" height="18.95" transform="translate(3417.16 2257.08) rotate(180)"/><rect class="cls-3" x="1919.44" y="1152.51" width="13.45" height="18.95" transform="translate(3852.33 2323.97) rotate(180)"/><rect class="cls-3" x="1894.3" y="1152.51" width="13.45" height="18.95" transform="translate(3802.05 2323.97) rotate(180)"/><rect class="cls-3" x="1869.72" y="1152.51" width="13.44" height="18.95" transform="translate(3752.89 2323.97) rotate(180)"/><rect class="cls-3" x="1846.42" y="1152.51" width="13.44" height="18.95" transform="translate(3706.28 2323.97) rotate(180)"/><rect class="cls-3" x="1822.66" y="1152.51" width="13.45" height="18.95" transform="translate(3658.77 2323.97) rotate(180)"/><rect class="cls-3" x="1798.64" y="1152.51" width="13.45" height="18.95" transform="translate(3610.73 2323.97) rotate(180)"/><rect class="cls-3" x="1773.5" y="1152.51" width="13.44" height="18.95" transform="translate(3560.44 2323.97) rotate(180)"/><rect class="cls-3" x="1748.92" y="1152.51" width="13.44" height="18.95" transform="translate(3511.28 2323.97) rotate(180)"/><rect class="cls-3" x="1725.61" y="1152.51" width="13.45" height="18.95" transform="translate(3464.67 2323.97) rotate(180)"/><rect class="cls-3" x="1701.86" y="1152.51" width="13.45" height="18.95" transform="translate(3417.16 2323.97) rotate(180)"/><rect class="cls-3" x="1919.44" y="1185.44" width="13.45" height="18.95" transform="translate(3852.33 2389.82) rotate(180)"/><rect class="cls-3" x="1894.3" y="1185.44" width="13.45" height="18.95" transform="translate(3802.05 2389.82) rotate(180)"/><rect class="cls-3" x="1869.72" y="1185.44" width="13.44" height="18.95" transform="translate(3752.89 2389.82) rotate(180)"/><rect class="cls-3" x="1846.42" y="1185.44" width="13.44" height="18.95" transform="translate(3706.28 2389.82) rotate(180)"/><rect class="cls-3" x="1822.66" y="1185.44" width="13.45" height="18.95" transform="translate(3658.77 2389.82) rotate(180)"/><rect class="cls-3" x="1798.64" y="1185.44" width="13.45" height="18.95" transform="translate(3610.73 2389.82) rotate(180)"/><rect class="cls-3" x="1773.5" y="1185.44" width="13.44" height="18.95" transform="translate(3560.44 2389.82) rotate(180)"/><rect class="cls-3" x="1748.92" y="1185.44" width="13.44" height="18.95" transform="translate(3511.28 2389.82) rotate(180)"/><rect class="cls-3" x="1725.61" y="1185.44" width="13.45" height="18.95" transform="translate(3464.67 2389.82) rotate(180)"/><rect class="cls-3" x="1701.86" y="1185.44" width="13.45" height="18.95" transform="translate(3417.16 2389.82) rotate(180)"/><rect class="cls-7" x="1919.44" y="1060.96" width="11.3" height="19.55" transform="translate(3850.19 2141.47) rotate(180)"/><rect class="cls-7" x="1807.28" y="1060.96" width="11.3" height="19.55" transform="translate(3625.85 2141.47) rotate(180)"/><rect class="cls-7" x="1718.05" y="1060.96" width="11.3" height="19.55" transform="translate(3447.4 2141.47) rotate(180)"/><rect class="cls-4" x="2236.88" y="1067.89" width="261.79" height="176.06" transform="translate(4735.55 2311.83) rotate(180)"/><rect class="cls-3" x="2236.88" y="1044.88" width="261.79" height="57.22" transform="translate(4735.55 2146.99) rotate(180)"/><rect class="cls-3" x="2467.4" y="1119.07" width="13.44" height="18.95" transform="translate(4948.24 2257.08) rotate(180)"/><rect class="cls-3" x="2442.26" y="1119.07" width="13.45" height="18.95" transform="translate(4897.96 2257.08) rotate(180)"/><rect class="cls-3" x="2417.68" y="1119.07" width="13.44" height="18.95" transform="translate(4848.8 2257.08) rotate(180)"/><rect class="cls-3" x="2394.37" y="1119.07" width="13.45" height="18.95" transform="translate(4802.19 2257.08) rotate(180)"/><rect class="cls-3" x="2370.62" y="1119.07" width="13.45" height="18.95" transform="translate(4754.68 2257.08) rotate(180)"/><rect class="cls-3" x="2346.59" y="1119.07" width="13.45" height="18.95" transform="translate(4706.63 2257.08) rotate(180)"/><rect class="cls-3" x="2321.45" y="1119.07" width="13.45" height="18.95" transform="translate(4656.35 2257.08) rotate(180)"/><rect class="cls-3" x="2296.87" y="1119.07" width="13.45" height="18.95" transform="translate(4607.19 2257.08) rotate(180)"/><rect class="cls-3" x="2273.57" y="1119.07" width="13.45" height="18.95" transform="translate(4560.58 2257.08) rotate(180)"/><rect class="cls-3" x="2249.81" y="1119.07" width="13.45" height="18.95" transform="translate(4513.07 2257.08) rotate(180)"/><rect class="cls-3" x="2467.4" y="1152.51" width="13.44" height="18.95" transform="translate(4948.24 2323.97) rotate(180)"/><rect class="cls-3" x="2442.26" y="1152.51" width="13.45" height="18.95" transform="translate(4897.96 2323.97) rotate(180)"/><rect class="cls-3" x="2417.68" y="1152.51" width="13.44" height="18.95" transform="translate(4848.8 2323.97) rotate(180)"/><rect class="cls-3" x="2394.37" y="1152.51" width="13.45" height="18.95" transform="translate(4802.19 2323.97) rotate(180)"/><rect class="cls-3" x="2370.62" y="1152.51" width="13.45" height="18.95" transform="translate(4754.68 2323.97) rotate(180)"/><rect class="cls-3" x="2346.59" y="1152.51" width="13.45" height="18.95" transform="translate(4706.63 2323.97) rotate(180)"/><rect class="cls-3" x="2321.45" y="1152.51" width="13.45" height="18.95" transform="translate(4656.35 2323.97) rotate(180)"/><rect class="cls-3" x="2296.87" y="1152.51" width="13.45" height="18.95" transform="translate(4607.19 2323.97) rotate(180)"/><rect class="cls-3" x="2273.57" y="1152.51" width="13.45" height="18.95" transform="translate(4560.58 2323.97) rotate(180)"/><rect class="cls-3" x="2249.81" y="1152.51" width="13.45" height="18.95" transform="translate(4513.07 2323.97) rotate(180)"/><rect class="cls-3" x="2467.4" y="1185.44" width="13.44" height="18.95" transform="translate(4948.24 2389.82) rotate(180)"/><rect class="cls-3" x="2442.26" y="1185.44" width="13.45" height="18.95" transform="translate(4897.96 2389.82) rotate(180)"/><rect class="cls-3" x="2417.68" y="1185.44" width="13.44" height="18.95" transform="translate(4848.8 2389.82) rotate(180)"/><rect class="cls-3" x="2394.37" y="1185.44" width="13.45" height="18.95" transform="translate(4802.19 2389.82) rotate(180)"/><rect class="cls-3" x="2370.62" y="1185.44" width="13.45" height="18.95" transform="translate(4754.68 2389.82) rotate(180)"/><rect class="cls-3" x="2346.59" y="1185.44" width="13.45" height="18.95" transform="translate(4706.63 2389.82) rotate(180)"/><rect class="cls-3" x="2321.45" y="1185.44" width="13.45" height="18.95" transform="translate(4656.35 2389.82) rotate(180)"/><rect class="cls-3" x="2296.87" y="1185.44" width="13.45" height="18.95" transform="translate(4607.19 2389.82) rotate(180)"/><rect class="cls-3" x="2273.57" y="1185.44" width="13.45" height="18.95" transform="translate(4560.58 2389.82) rotate(180)"/><rect class="cls-3" x="2249.81" y="1185.44" width="13.45" height="18.95" transform="translate(4513.07 2389.82) rotate(180)"/><rect class="cls-7" x="2467.4" y="1060.96" width="11.3" height="19.55" transform="translate(4946.1 2141.47) rotate(180)"/><rect class="cls-7" x="2355.23" y="1060.96" width="11.3" height="19.55" transform="translate(4721.76 2141.47) rotate(180)"/><rect class="cls-7" x="2266" y="1060.96" width="11.3" height="19.55" transform="translate(4543.31 2141.47) rotate(180)"/><path class="cls-8" d="M2209,1205.61c0-1,0-2.09,0-3.14,0-6.39,0-12.91-.06-18.32-.06-8.69-3.05-16.64-6.4-22.83a65,65,0,0,0-9.29-13L2183,1140l-34.43-27.7-.2-.43a10.82,10.82,0,0,0,2-2.74,11.11,11.11,0,0,0,1.17-5v-19.85a11.15,11.15,0,0,0-11.12-11.12h-3.56a10.94,10.94,0,0,0-5.66,1.6l-23.64-51a124.49,124.49,0,0,0-5.45-18.55c-6.44-17-24.74-28.6-45.54-28.6h-178v.29H1643.9v252.67h29.19c2.58,13.06,10.48,22.64,20,22.64h13.15c9.46,0,17.37-9.58,20-22.64H1787c2.58,13.06,10.49,22.64,20,22.64h13.15c9.47,0,17.37-9.58,20-22.64h136.68a47.26,47.26,0,0,1-.66-8.07c0-.2.06-.38.06-.58l.6,8.65H1983c2.58,13.06,10.49,22.64,20,22.64h13.15c9.47,0,17.37-9.58,20-22.64h98.13c2.58,13.06,10.49,22.64,19.95,22.64h13.15c9.52,0,17.46-9.68,20-22.86A23.83,23.83,0,0,0,2209,1205.61Z"/><path class="cls-9" d="M1859.57,804.76v52.31a29.27,29.27,0,0,1-29.3,29.3h-9.38a29.39,29.39,0,0,1-29.3-29.3V804.76a28.88,28.88,0,0,1,4.25-15v-.07a29.38,29.38,0,0,1,25.05-14.18h9.38A29.39,29.39,0,0,1,1859.57,804.76Z"/><path class="cls-10" d="M1856.5,870.15a29.39,29.39,0,0,1-26.23,16.22h-9.38a29.39,29.39,0,0,1-29.3-29.3V804.76a28.88,28.88,0,0,1,4.25-15C1796.39,793,1808.84,864.71,1856.5,870.15Z"/><polygon class="cls-11" points="1394.99 1187.61 1539.85 1187.61 1539.85 1041.41 1388.72 1041.41 1394.99 1187.61"/><path class="cls-12" d="M1851.76,878.57l-711.68,17.55V520.83h467.34a118.71,118.71,0,0,1,105.66,64.59l30.59,59.69Z"/><path class="cls-13" d="M1447.46,1163.83c0,39.69,20.47,83.46,20.47,83.46h34.66c30.44,0,55.13-37.37,55.13-83.46s-59.34-83.46-89.79-83.46S1447.46,1117.73,1447.46,1163.83Z"/><ellipse class="cls-14" cx="1467.93" cy="1163.83" rx="55.13" ry="83.46"/><ellipse class="cls-11" cx="1468.63" cy="1163.83" rx="41.53" ry="62.87"/><path class="cls-13" d="M1845.94,1163.83c0,39.69,20.47,83.46,20.47,83.46h34.66c30.44,0,55.12-37.37,55.12-83.46s-59.33-83.46-89.78-83.46S1845.94,1117.73,1845.94,1163.83Z"/><path class="cls-14" d="M1811.28,1163.83c0,46.09,24.68,83.46,55.13,83.46s55.13-37.37,55.13-83.46-24.68-83.46-55.13-83.46S1811.28,1117.73,1811.28,1163.83Z"/><path class="cls-11" d="M1825.58,1163.83c0,34.72,18.59,62.86,41.52,62.86s41.53-28.14,41.53-62.86S1890,1101,1867.1,1101,1825.58,1129.11,1825.58,1163.83Z"/><path class="cls-13" d="M930.87,1163.83c0,39.69,20.47,83.46,20.47,83.46H986c30.44,0,55.13-37.37,55.13-83.46s-59.34-83.46-89.79-83.46S930.87,1117.73,930.87,1163.83Z"/><path class="cls-14" d="M896.21,1163.83c0,46.09,24.68,83.46,55.13,83.46s55.13-37.37,55.13-83.46-24.68-83.46-55.13-83.46S896.21,1117.73,896.21,1163.83Z"/><path class="cls-11" d="M910.51,1163.83c0,34.72,18.59,62.86,41.53,62.86s41.52-28.14,41.52-62.86S975,1101,952,1101,910.51,1129.11,910.51,1163.83Z"/><path class="cls-12" d="M2011.09,1124.44a63,63,0,0,1-63,63.17H1539.84a124,124,0,0,0,1.82-21.26c0-54-32.38-97.77-72.24-97.77s-72.32,43.8-72.32,97.77a124.09,124.09,0,0,0,1.74,21.26H1160.3s-9.61-106.5-8.43-159.91c1-46.48,1-137.55-1.81-159.76,0-3.31,230-3.7,288.08-3.94,7.88-.08,12.61-.08,13.08-.08l.79.55.87.63c10.71,7.49,70.74,49.55,108,74.21,32.85,21.67,275.32,30.49,370.41,33.17,23.63.63,38.2.86,38.2.86a171.76,171.76,0,0,1,24.5,34.35c8.82,16.31,16.7,37.26,16.86,60.18.08,14.26.16,31.44.16,48.29C2011.09,1118.92,2011.09,1121.68,2011.09,1124.44Z"/><path class="cls-15" d="M1794.37,863.92H1474.54a18.89,18.89,0,0,1-17.17-11l-79.18-176.14a8.74,8.74,0,0,1,8-12.29h337.4a18.76,18.76,0,0,1,17.17,11.27l56.72,129.58,14.18,32.38A18.78,18.78,0,0,1,1794.37,863.92Z"/><path class="cls-9" d="M1645.41,1116.16c-.08,5.52-.32,10.72-.64,15.37-2.28,30.64-33.08,56.08-33.08,56.08h-71.85a127.22,127.22,0,0,0-8.42-71.45c-12.69-28.51-35.69-47.58-62-47.58s-49.39,19.07-62.08,47.58a128.87,128.87,0,0,0-8.5,71.45H1140.05V520.85h207.74V653.19S1410.1,799.56,1438.14,864c6.94,16.07,11.82,27,13.08,29.39,6.23,11.89,151,85.15,175,106.74C1639.5,1012.1,1646.11,1074.33,1645.41,1116.16Z"/><path class="cls-15" d="M1350.11,696.15,1418.24,864h-116.9s-24-4-27-53c-3.28-52.32-3.28-142.6-3.28-142.6l51.31-.25C1341.88,671,1344.94,681.78,1350.11,696.15Z"/><polygon class="cls-12" points="1969.49 973.34 1590.42 973.34 1452.01 864.47 1451.22 863.92 1833.6 863.92 1942.47 951.52 1969.49 973.34"/><path class="cls-3" d="M1994,1007.69c-2.2,3.62-5,6-8.11,6.54l-53.18,9.84c-4.49.87-8-6.93-6.77-15l5.2-35.77.16-.86,1-7.33c.94-6.3,3.7-11.11,7.09-12.45l3.07-1.18,27,21.82A171.76,171.76,0,0,1,1994,1007.69Z"/><path class="cls-9" d="M1639.5,1037.31l-34.27-3.39a26.85,26.85,0,0,1-23.79-22l-7.88-43.32a5.93,5.93,0,0,1-.16-2c24.43,14,45,26.55,52.78,33.56C1631.86,1005.25,1636.34,1019.43,1639.5,1037.31Z"/><path class="cls-3" d="M1704.57,1043.77l-65-6.46h-.08l-34.27-3.39a26.85,26.85,0,0,1-23.79-22l-7.88-43.32a5.93,5.93,0,0,1-.16-2v-.08a14.42,14.42,0,0,1,17.33-14.65L1692,972.4a17.43,17.43,0,0,1,13.31,12.44l11.9,44A11.86,11.86,0,0,1,1704.57,1043.77Z"/><path class="cls-12" d="M1743.69,645.1H1348.78A228.52,228.52,0,0,0,1337.34,591c-8.82-25.48-24.06-53.91-50.75-70.13h322.7c52.61,0,99.22,28.09,117.74,70.13a54.92,54.92,0,0,1,2.28,5.23A328.92,328.92,0,0,1,1743.69,645.1Z"/><path class="cls-15" d="M1639.58,1037.31l-34.35-3.39a26.85,26.85,0,0,1-23.79-22l-7.88-43.32a6.4,6.4,0,0,1-.16-2.13c24.43,14.1,45,26.63,52.78,33.64C1631.86,1005.25,1636.34,1019.43,1639.58,1037.31Z"/><path class="cls-16" d="M2011.09,1124.44c.07,34.89-29.55,63.17-66.1,63.17H1539.84a127.22,127.22,0,0,0-8.42-71.45H2011C2011.09,1118.92,2011.09,1121.68,2011.09,1124.44Z"/><path class="cls-16" d="M1397.1,1166.35a124.09,124.09,0,0,0,1.74,21.26H1140.05v-71.45h267.29A124.91,124.91,0,0,0,1397.1,1166.35Z"/><path class="cls-16" d="M1744.2,976.42h155c5,0,8.74,6.68,8,14.08l-5.5,53.87c-.81,7.93-5.32,13.78-10.62,13.78H1763.36c-8.19,0-15.41-8.11-17.79-20l-9.2-45.8C1734.77,984.44,1738.7,976.42,1744.2,976.42Z"/><path class="cls-3" d="M1797.44,805.31c-182.84-9.37-306.51-107.21-343.86-140.85h270a18.76,18.76,0,0,1,17.17,11.27Z"/><rect class="cls-17" x="521.61" y="520.83" width="691.58" height="666.83"/><path class="cls-13" d="M1383.57,777.79s5.91,67.82-27.57,86.39h62.55Z"/><path class="cls-13" d="M1392.76,823.18s-14.13-10.06-15.34-18.39v47.43h18.48Z"/><path class="cls-12" d="M1377.41,804.76v52.31a29.27,29.27,0,0,1-29.31,29.3h-9.37a29.4,29.4,0,0,1-29.31-29.3V804.76a28.89,28.89,0,0,1,4.26-15v-.07a29.37,29.37,0,0,1,25-14.18h9.37A29.4,29.4,0,0,1,1377.41,804.76Z"/><path class="cls-16" d="M1374.34,870.15a29.4,29.4,0,0,1-26.24,16.22h-9.37a29.4,29.4,0,0,1-29.31-29.3V804.76a28.89,28.89,0,0,1,4.26-15C1314.23,793,1326.68,864.71,1374.34,870.15Z"/><path class="cls-11" d="M747.49,1187.66H577.37c-3.6-15.35-14.42-124.7,80.92-124.7C744.93,1063,751.3,1162.72,747.49,1187.66Z"/><path class="cls-13" d="M630.62,1163.83c0,39.69,20.47,83.46,20.47,83.46h34.66c30.45,0,55.13-37.37,55.13-83.46s-59.34-83.46-89.79-83.46S630.62,1117.73,630.62,1163.83Z"/><path class="cls-14" d="M596,1163.83c0,46.09,24.68,83.46,55.12,83.46s55.13-37.37,55.13-83.46-24.68-83.46-55.13-83.46S596,1117.73,596,1163.83Z"/><path class="cls-11" d="M610.26,1163.83c0,34.72,18.59,62.86,41.53,62.86s41.52-28.14,41.52-62.86S674.72,1101,651.79,1101,610.26,1129.11,610.26,1163.83Z"/><path class="cls-16" d="M1743.69,645.1H1348.78A228.52,228.52,0,0,0,1337.34,591H1727a54.92,54.92,0,0,1,2.28,5.23A328.92,328.92,0,0,1,1743.69,645.1Z"/><path class="cls-18" d="M1407.34,108.37a129.19,129.19,0,0,0-129.18,129.18c0,71.34,129.18,230,129.18,230s129.18-158.62,129.18-230A129.18,129.18,0,0,0,1407.34,108.37Zm0,188.25a60.38,60.38,0,1,1,60.38-60.38A60.39,60.39,0,0,1,1407.34,296.62Z"/><path class="cls-19" d="M1150.06,926.68a2.49,2.49,0,0,1-1.91-.9l-3.1-3.75a2.48,2.48,0,0,1,3.83-3.16l3.09,3.74a2.48,2.48,0,0,1-1.91,4.07Zm-7.3-8.86a2.47,2.47,0,0,1-1.92-.9l-4.19-5.13a2.48,2.48,0,0,1,3.84-3.14l4.19,5.12a2.48,2.48,0,0,1-.35,3.49A2.44,2.44,0,0,1,1142.76,917.82Zm-8.36-10.25a2.5,2.5,0,0,1-1.93-.92c-1.38-1.7-2.76-3.43-4.16-5.17a2.48,2.48,0,0,1,3.87-3.1c1.39,1.74,2.77,3.45,4.14,5.15a2.47,2.47,0,0,1-1.92,4Zm-8.28-10.33a2.46,2.46,0,0,1-1.94-.94l-4.11-5.21A2.48,2.48,0,0,1,1124,888l4.08,5.19a2.48,2.48,0,0,1-1.94,4ZM1118,886.82a2.46,2.46,0,0,1-2-1c-1.35-1.73-2.69-3.49-4-5.26a2.48,2.48,0,0,1,4-3c1.34,1.77,2.68,3.51,4,5.24a2.48,2.48,0,0,1-2,4Zm-8-10.52a2.5,2.5,0,0,1-2-1c-1.32-1.76-2.65-3.54-4-5.32a2.48,2.48,0,0,1,4-3c1.31,1.78,2.63,3.55,3.94,5.29a2.48,2.48,0,0,1-.49,3.48A2.52,2.52,0,0,1,1109.93,876.3Zm-7.87-10.64a2.5,2.5,0,0,1-2-1c-1.29-1.78-2.59-3.58-3.88-5.39a2.48,2.48,0,1,1,4-2.88q1.93,2.7,3.86,5.35a2.48,2.48,0,0,1-2,3.94Zm-7.7-10.77a2.49,2.49,0,0,1-2-1c-1.26-1.81-2.53-3.63-3.79-5.46a2.48,2.48,0,1,1,4.09-2.81c1.25,1.82,2.5,3.62,3.76,5.42a2.47,2.47,0,0,1-.6,3.45A2.52,2.52,0,0,1,1094.36,854.89Zm-7.5-10.9a2.49,2.49,0,0,1-2.06-1.09c-1.23-1.83-2.46-3.68-3.68-5.53a2.48,2.48,0,1,1,4.14-2.73q1.82,2.76,3.66,5.48a2.5,2.5,0,0,1-.67,3.45A2.54,2.54,0,0,1,1086.86,844Zm-7.28-11a2.48,2.48,0,0,1-2.09-1.13q-1.8-2.79-3.57-5.61a2.48,2.48,0,0,1,4.2-2.64q1.76,2.81,3.54,5.56a2.48,2.48,0,0,1-.74,3.43A2.45,2.45,0,0,1,1079.58,832.94Zm-7-11.2a2.47,2.47,0,0,1-2.11-1.18c-1.16-1.89-2.31-3.78-3.45-5.69a2.48,2.48,0,1,1,4.26-2.54q1.69,2.83,3.41,5.63a2.48,2.48,0,0,1-2.11,3.78Zm-6.78-11.36a2.47,2.47,0,0,1-2.15-1.24q-1.66-2.86-3.3-5.77a2.48,2.48,0,0,1,4.32-2.43c1.08,1.91,2.17,3.82,3.27,5.71a2.47,2.47,0,0,1-.9,3.39A2.44,2.44,0,0,1,1065.75,810.38Zm-6.5-11.53a2.47,2.47,0,0,1-2.18-1.29q-1.59-2.92-3.15-5.87a2.48,2.48,0,1,1,4.38-2.32c1,2,2.07,3.88,3.13,5.81a2.49,2.49,0,0,1-1,3.37A2.45,2.45,0,0,1,1059.25,798.85Zm-6.2-11.73a2.48,2.48,0,0,1-2.21-1.35q-1.52-3-3-6a2.48,2.48,0,0,1,4.45-2.19q1.45,3,3,5.9a2.47,2.47,0,0,1-1.08,3.33A2.41,2.41,0,0,1,1053.05,787.12Zm-5.84-11.9a2.49,2.49,0,0,1-2.25-1.42c-.94-2-1.88-4-2.79-6a2.48,2.48,0,1,1,4.52-2q1.35,3,2.76,6a2.48,2.48,0,0,1-1.18,3.3A2.54,2.54,0,0,1,1047.21,775.22Zm-5.46-12.06a2.48,2.48,0,0,1-2.28-1.5c-.88-2-1.75-4.08-2.59-6.14a2.48,2.48,0,1,1,4.58-1.89q1.26,3,2.56,6.06a2.47,2.47,0,0,1-1.29,3.26A2.43,2.43,0,0,1,1041.75,763.16Zm-5-12.24a2.48,2.48,0,0,1-2.31-1.58q-1.22-3.11-2.37-6.23a2.48,2.48,0,1,1,4.65-1.72q1.14,3.08,2.34,6.14a2.47,2.47,0,0,1-1.41,3.21A2.37,2.37,0,0,1,1036.7,750.92Zm-4.59-12.41a2.48,2.48,0,0,1-2.34-1.67c-.74-2.1-1.45-4.2-2.13-6.32a2.48,2.48,0,1,1,4.71-1.53q1,3.12,2.1,6.22a2.48,2.48,0,0,1-1.53,3.16A2.56,2.56,0,0,1,1032.11,738.51Zm-4.1-12.58a2.49,2.49,0,0,1-2.38-1.76c-.64-2.12-1.27-4.28-1.86-6.4a2.48,2.48,0,1,1,4.77-1.34c.59,2.09,1.21,4.21,1.84,6.3a2.47,2.47,0,0,1-1.65,3.09A2.57,2.57,0,0,1,1028,725.93Zm-3.57-12.74a2.47,2.47,0,0,1-2.4-1.86c-.56-2.16-1.09-4.34-1.59-6.48a2.49,2.49,0,0,1,4.84-1.13c.48,2.11,1,4.25,1.55,6.38a2.48,2.48,0,0,1-1.78,3A2.25,2.25,0,0,1,1024.44,713.19Zm-3-12.88a2.48,2.48,0,0,1-2.43-2c-.45-2.18-.88-4.39-1.28-6.55a2.48,2.48,0,1,1,4.88-.89c.39,2.12.81,4.29,1.26,6.43a2.49,2.49,0,0,1-1.93,2.93A2.2,2.2,0,0,1,1021.45,700.31Zm-2.38-13a2.47,2.47,0,0,1-2.44-2.1c-.35-2.2-.67-4.42-1-6.61a2.48,2.48,0,1,1,4.92-.64c.28,2.15.6,4.33.94,6.49a2.48,2.48,0,0,1-2.07,2.83Zm-1.71-13.13a2.48,2.48,0,0,1-2.46-2.22c-.23-2.22-.44-4.46-.61-6.66a2.48,2.48,0,1,1,5-.38c.17,2.16.36,4.35.59,6.53a2.48,2.48,0,0,1-2.21,2.72Zm-1-13.2a2.5,2.5,0,0,1-2.48-2.36c-.1-2.23-.18-4.48-.23-6.7a2.48,2.48,0,0,1,5-.1c0,2.17.12,4.37.23,6.55a2.48,2.48,0,0,1-2.36,2.6Zm-.27-13.26h0a2.48,2.48,0,0,1-2.46-2.5c0-2.23.07-4.48.15-6.68a2.48,2.48,0,0,1,5,.18c-.08,2.16-.13,4.36-.15,6.54A2.48,2.48,0,0,1,1016.08,647.7Zm.5-13.23h-.17a2.49,2.49,0,0,1-2.31-2.64c.15-2.23.33-4.48.54-6.68a2.48,2.48,0,0,1,4.94.47c-.21,2.16-.39,4.36-.53,6.54A2.48,2.48,0,0,1,1016.58,634.47Zm1.27-13.18a1.77,1.77,0,0,1-.32,0,2.47,2.47,0,0,1-2.14-2.77c.28-2.2.6-4.43.94-6.62a2.48,2.48,0,0,1,4.9.77c-.34,2.15-.65,4.32-.92,6.48A2.48,2.48,0,0,1,1017.85,621.29Zm2.07-13.06a2.46,2.46,0,0,1-2.44-2.94c.41-2.18.86-4.38,1.34-6.55a2.48,2.48,0,1,1,4.84,1.07c-.46,2.12-.91,4.27-1.31,6.41A2.48,2.48,0,0,1,1019.92,608.23Zm2.85-12.91a2.54,2.54,0,0,1-.61-.07,2.49,2.49,0,0,1-1.8-3c.54-2.14,1.13-4.31,1.74-6.45a2.48,2.48,0,1,1,4.77,1.36c-.6,2.09-1.17,4.21-1.7,6.31A2.48,2.48,0,0,1,1022.77,595.32Zm3.62-12.71a2.45,2.45,0,0,1-.75-.12,2.49,2.49,0,0,1-1.62-3.12c.67-2.1,1.38-4.23,2.12-6.34a2.48,2.48,0,1,1,4.68,1.64c-.72,2.06-1.42,4.15-2.07,6.21A2.48,2.48,0,0,1,1026.39,582.61Zm4.37-12.48a2.51,2.51,0,0,1-.89-.17,2.48,2.48,0,0,1-1.43-3.2c.79-2.06,1.63-4.15,2.48-6.21a2.48,2.48,0,1,1,4.58,1.91c-.84,2-1.65,4-2.43,6.07A2.47,2.47,0,0,1,1030.76,570.13Zm5.08-12.21a2.48,2.48,0,0,1-2.26-3.5c.9-2,1.85-4,2.82-6a2.48,2.48,0,1,1,4.47,2.16c-.95,2-1.88,4-2.77,5.93A2.49,2.49,0,0,1,1035.84,557.92Zm5.75-11.91a2.61,2.61,0,0,1-1.14-.27,2.49,2.49,0,0,1-1.06-3.35c1-1.95,2.07-3.94,3.14-5.89a2.48,2.48,0,0,1,4.35,2.4c-1.06,1.91-2.09,3.85-3.08,5.77A2.5,2.5,0,0,1,1041.59,546Zm6.38-11.58a2.45,2.45,0,0,1-1.25-.34,2.48,2.48,0,0,1-.89-3.39c1.11-1.9,2.27-3.82,3.44-5.72a2.48,2.48,0,0,1,4.22,2.61c-1.15,1.87-2.29,3.75-3.38,5.61A2.47,2.47,0,0,1,1048,534.43Zm7-11.24a2.43,2.43,0,0,1-1.36-.41,2.48,2.48,0,0,1-.72-3.43c1.21-1.84,2.46-3.71,3.72-5.54a2.48,2.48,0,0,1,4.09,2.81c-1.24,1.8-2.47,3.63-3.65,5.44A2.49,2.49,0,0,1,1054.93,523.19Zm7.49-10.9a2.44,2.44,0,0,1-1.45-.47,2.48,2.48,0,0,1-.56-3.46c1.29-1.79,2.62-3.6,4-5.37a2.48,2.48,0,0,1,4,3c-1.32,1.74-2.63,3.51-3.9,5.27A2.47,2.47,0,0,1,1062.42,512.29Zm8-10.55a2.48,2.48,0,0,1-1.94-4c1.35-1.72,2.76-3.46,4.18-5.18a2.48,2.48,0,1,1,3.83,3.15c-1.4,1.7-2.78,3.42-4.12,5.11A2.48,2.48,0,0,1,1070.39,501.74Zm8.41-10.2a2.49,2.49,0,0,1-1.88-4.1q2.16-2.51,4.39-5a2.48,2.48,0,1,1,3.7,3.3c-1.47,1.65-2.91,3.29-4.32,4.94A2.5,2.5,0,0,1,1078.8,491.54Zm8.81-9.87a2.48,2.48,0,0,1-1.81-4.17c1.49-1.61,3-3.22,4.57-4.83a2.48,2.48,0,1,1,3.57,3.43q-2.3,2.4-4.51,4.78A2.46,2.46,0,0,1,1087.61,481.67Zm9.17-9.53a2.48,2.48,0,0,1-1.75-4.23q2.33-2.34,4.73-4.67a2.48,2.48,0,1,1,3.46,3.56q-2.38,2.29-4.68,4.61A2.47,2.47,0,0,1,1096.78,472.14Zm9.5-9.21a2.48,2.48,0,0,1-1.7-4.29c1.6-1.5,3.23-3,4.88-4.51a2.48,2.48,0,1,1,3.34,3.67c-1.63,1.49-3.24,3-4.83,4.46A2.47,2.47,0,0,1,1106.28,462.93Zm9.78-8.9a2.48,2.48,0,0,1-1.64-4.34c1.65-1.45,3.32-2.91,5-4.36a2.48,2.48,0,0,1,3.22,3.77c-1.67,1.44-3.33,2.87-5,4.31A2.45,2.45,0,0,1,1116.06,454Zm10-8.6a2.46,2.46,0,0,1-1.91-.89,2.49,2.49,0,0,1,.32-3.5c1.69-1.4,3.4-2.81,5.14-4.21a2.48,2.48,0,1,1,3.12,3.86q-2.58,2.08-5.09,4.17A2.5,2.5,0,0,1,1126.11,445.43Zm10.24-8.37a2.48,2.48,0,0,1-1.6-4.38c1.67-1.4,3.33-2.84,4.94-4.28a2.48,2.48,0,0,1,3.31,3.7c-1.65,1.47-3.35,2.94-5.06,4.38A2.48,2.48,0,0,1,1136.35,437.06Zm9.85-8.82a2.48,2.48,0,0,1-1.71-4.27c1.57-1.5,3.13-3.05,4.64-4.59a2.48,2.48,0,0,1,3.55,3.47c-1.55,1.58-3.16,3.17-4.77,4.71A2.51,2.51,0,0,1,1146.2,428.24Zm9.25-9.45a2.47,2.47,0,0,1-1.83-4.15c1.46-1.61,2.92-3.25,4.32-4.89a2.48,2.48,0,1,1,3.77,3.21c-1.43,1.69-2.93,3.38-4.43,5A2.49,2.49,0,0,1,1155.45,418.79Zm8.57-10.06a2.48,2.48,0,0,1-1.94-4c1.35-1.7,2.68-3.44,4-5.19a2.48,2.48,0,0,1,4,2.94c-1.32,1.79-2.69,3.59-4.07,5.33A2.48,2.48,0,0,1,1164,408.73Zm7.84-10.65a2.48,2.48,0,0,1-2-3.88c1.22-1.79,2.42-3.62,3.58-5.45a2.48,2.48,0,1,1,4.19,2.64c-1.18,1.88-2.42,3.77-3.67,5.61A2.49,2.49,0,0,1,1171.86,398.08Zm7-11.19a2.53,2.53,0,0,1-1.24-.33,2.48,2.48,0,0,1-.9-3.39c1.08-1.87,2.15-3.79,3.17-5.71a2.48,2.48,0,0,1,4.38,2.33c-1,2-2.15,3.94-3.26,5.86A2.47,2.47,0,0,1,1178.9,386.89Zm6.21-11.66a2.48,2.48,0,0,1-2.23-3.57c.94-2,1.86-3.94,2.73-5.91a2.48,2.48,0,0,1,4.54,2c-.89,2-1.84,4.06-2.81,6.07A2.49,2.49,0,0,1,1185.11,375.23Zm5.33-12.08a2.51,2.51,0,0,1-.92-.18,2.48,2.48,0,0,1-1.38-3.22c.8-2,1.57-4.06,2.3-6.1a2.48,2.48,0,1,1,4.67,1.67c-.75,2.1-1.54,4.2-2.36,6.26A2.5,2.5,0,0,1,1190.44,363.15Zm4.46-12.44a2.49,2.49,0,0,1-2.37-3.24c.66-2.06,1.29-4.16,1.87-6.25a2.48,2.48,0,1,1,4.78,1.34c-.6,2.14-1.25,4.3-1.92,6.42A2.49,2.49,0,0,1,1194.9,350.71Zm3.57-12.73a3,3,0,0,1-.59-.07,2.48,2.48,0,0,1-1.82-3c.51-2.1,1-4.24,1.43-6.37a2.48,2.48,0,0,1,4.86,1c-.45,2.18-.95,4.38-1.47,6.53A2.48,2.48,0,0,1,1198.47,338Zm2.7-13a2,2,0,0,1-.43,0,2.48,2.48,0,0,1-2-2.87c.37-2.13.71-4.3,1-6.45a2.48,2.48,0,0,1,4.92.69c-.31,2.2-.66,4.43-1,6.61A2.48,2.48,0,0,1,1201.17,325Zm1.84-13.1-.27,0a2.47,2.47,0,0,1-2.2-2.73c.23-2.14.44-4.34.6-6.51a2.48,2.48,0,1,1,4.95.38c-.17,2.23-.38,4.47-.62,6.66A2.49,2.49,0,0,1,1203,311.93Zm1-13.2h-.12a2.47,2.47,0,0,1-2.36-2.59c.1-2.16.17-4.36.21-6.55a2.48,2.48,0,0,1,5,.09c0,2.23-.11,4.48-.22,6.69A2.47,2.47,0,0,1,1204,298.73Zm.22-13.23a2.49,2.49,0,0,1-2.48-2.45c0-2.17-.08-4.38-.17-6.55a2.48,2.48,0,1,1,5-.2c.09,2.22.15,4.47.17,6.69a2.48,2.48,0,0,1-2.45,2.51Zm-.53-13.24a2.48,2.48,0,0,1-2.47-2.31c-.15-2.15-.32-4.35-.53-6.53a2.48,2.48,0,0,1,4.94-.46c.21,2.22.39,4.46.54,6.66a2.48,2.48,0,0,1-2.31,2.64Zm-1.24-13.16a2.48,2.48,0,0,1-2.46-2.19c-.26-2.15-.55-4.34-.87-6.49a2.48,2.48,0,0,1,4.91-.72c.32,2.19.62,4.42.89,6.62a2.49,2.49,0,0,1-2.17,2.76ZM1200.56,246a2.48,2.48,0,0,1-2.44-2.06c-.37-2.12-.77-4.29-1.19-6.45a2.48,2.48,0,0,1,4.86-1c.44,2.2.84,4.4,1.22,6.57a2.48,2.48,0,0,1-2,2.86A2,2,0,0,1,1200.56,246ZM1198,233a2.48,2.48,0,0,1-2.42-1.94c-.47-2.12-1-4.27-1.5-6.38a2.48,2.48,0,1,1,4.82-1.19c.53,2.15,1,4.33,1.52,6.49a2.48,2.48,0,0,1-2.42,3Zm-3.17-12.84a2.48,2.48,0,0,1-2.39-1.83c-.57-2.1-1.17-4.22-1.79-6.31a2.48,2.48,0,1,1,4.75-1.41c.63,2.13,1.25,4.29,1.82,6.42a2.49,2.49,0,0,1-2.39,3.13Zm-3.76-12.71a2.48,2.48,0,0,1-2.36-1.73c-.66-2.06-1.36-4.17-2.07-6.24a2.48,2.48,0,1,1,4.69-1.62c.72,2.11,1.43,4.25,2.1,6.35a2.48,2.48,0,0,1-1.6,3.12A2.51,2.51,0,0,1,1191.07,207.48Zm-4.31-12.55a2.48,2.48,0,0,1-2.33-1.63c-.76-2.05-1.54-4.12-2.34-6.15a2.48,2.48,0,0,1,4.62-1.81c.81,2.06,1.61,4.16,2.37,6.25a2.46,2.46,0,0,1-1.47,3.18A2.33,2.33,0,0,1,1186.76,194.93Zm-4.85-12.35a2.49,2.49,0,0,1-2.29-1.53c-.83-2-1.71-4.05-2.59-6.05a2.48,2.48,0,1,1,4.54-2c.9,2,1.78,4.1,2.63,6.14a2.49,2.49,0,0,1-1.33,3.25A2.53,2.53,0,0,1,1181.91,182.58Zm-5.34-12.14a2.48,2.48,0,0,1-2.25-1.43c-.92-2-1.87-4-2.83-5.93a2.48,2.48,0,1,1,4.45-2.19c1,2,1.94,4,2.88,6a2.48,2.48,0,0,1-1.21,3.29A2.39,2.39,0,0,1,1176.57,170.44ZM601.64,160.3a2.4,2.4,0,0,1-1.26-.35,2.48,2.48,0,0,1-.87-3.4c0-.08,1.27-2.13,3.74-5.72a2.48,2.48,0,0,1,4.09,2.81c-2.37,3.44-3.55,5.42-3.56,5.44A2.5,2.5,0,0,1,601.64,160.3Zm569.1-1.75a2.48,2.48,0,0,1-2.21-1.35c-1-1.95-2-3.88-3.06-5.81a2.48,2.48,0,0,1,4.36-2.36c1.06,2,2.1,3.92,3.12,5.9a2.49,2.49,0,0,1-1.08,3.34A2.42,2.42,0,0,1,1170.74,158.55Zm-561.59-9.24a2.44,2.44,0,0,1-1.47-.48,2.49,2.49,0,0,1-.53-3.47c1.29-1.75,2.65-3.54,4.05-5.33a2.48,2.48,0,1,1,3.91,3.05c-1.36,1.75-2.7,3.51-4,5.23A2.48,2.48,0,0,1,609.15,149.31Zm555.3-2.41a2.47,2.47,0,0,1-2.16-1.26q-1.62-2.87-3.29-5.68a2.48,2.48,0,0,1,4.27-2.53q1.7,2.87,3.34,5.77a2.49,2.49,0,0,1-.94,3.38A2.58,2.58,0,0,1,1164.45,146.9Zm-547.16-8.05a2.46,2.46,0,0,1-1.57-.56,2.49,2.49,0,0,1-.35-3.49c1.39-1.69,2.83-3.41,4.29-5.12a2.48,2.48,0,0,1,3.77,3.23c-1.44,1.68-2.86,3.37-4.22,5A2.47,2.47,0,0,1,617.29,138.85Zm540.42-3.34a2.47,2.47,0,0,1-2.11-1.17q-1.72-2.79-3.51-5.55a2.48,2.48,0,0,1,4.17-2.69q1.8,2.79,3.56,5.63a2.47,2.47,0,0,1-.81,3.41A2.44,2.44,0,0,1,1157.71,135.51Zm-531.8-6.72a2.51,2.51,0,0,1-1.66-.63,2.47,2.47,0,0,1-.19-3.5c1.47-1.65,3-3.31,4.5-4.93a2.48,2.48,0,0,1,3.63,3.38c-1.49,1.6-3,3.23-4.43,4.85A2.47,2.47,0,0,1,625.91,128.79Zm524.62-4.38a2.49,2.49,0,0,1-2.06-1.09q-1.83-2.71-3.71-5.4a2.48,2.48,0,1,1,4-2.85q1.92,2.72,3.78,5.48a2.49,2.49,0,0,1-.67,3.44A2.46,2.46,0,0,1,1150.53,124.41Zm-515.6-5.31a2.48,2.48,0,0,1-1.78-4.2q2.26-2.34,4.69-4.74a2.48,2.48,0,1,1,3.49,3.52q-2.39,2.37-4.62,4.67A2.46,2.46,0,0,1,634.93,119.1Zm508-5.49a2.49,2.49,0,0,1-2-1Q1139,110,1137,107.35a2.48,2.48,0,0,1,3.94-3c1.34,1.76,2.67,3.54,4,5.32a2.49,2.49,0,0,1-.53,3.47A2.44,2.44,0,0,1,1142.93,113.61Zm-498.6-3.83a2.45,2.45,0,0,1-1.79-.76,2.48,2.48,0,0,1,.08-3.51q2.37-2.27,4.87-4.56a2.48,2.48,0,0,1,3.35,3.66c-1.64,1.51-3.24,3-4.8,4.49A2.45,2.45,0,0,1,644.33,109.78Zm490.59-6.65a2.46,2.46,0,0,1-1.94-.94c-1.36-1.7-2.75-3.4-4.13-5.07a2.48,2.48,0,1,1,3.81-3.17c1.41,1.69,2.82,3.43,4.2,5.15a2.49,2.49,0,0,1-1.94,4Zm-480.84-2.3a2.45,2.45,0,0,1-1.86-.84,2.48,2.48,0,0,1,.21-3.5c1.64-1.45,3.32-2.9,5-4.37a2.48,2.48,0,0,1,3.21,3.78q-2.53,2.16-5,4.31A2.5,2.5,0,0,1,654.08,100.83ZM1126.49,93a2.48,2.48,0,0,1-1.87-.85c-1.43-1.65-2.89-3.3-4.35-4.92a2.48,2.48,0,1,1,3.68-3.33c1.49,1.65,3,3.33,4.42,5a2.48,2.48,0,0,1-.25,3.5A2.46,2.46,0,0,1,1126.49,93Zm-462.34-.73a2.48,2.48,0,0,1-1.57-4.4c1.69-1.39,3.42-2.79,5.19-4.18a2.48,2.48,0,0,1,3.07,3.89q-2.61,2.07-5.12,4.12A2.45,2.45,0,0,1,664.15,92.25ZM674.53,84a2.48,2.48,0,0,1-1.5-4.45q2.61-2,5.33-4a2.48,2.48,0,1,1,2.94,4q-2.68,2-5.27,3.93A2.47,2.47,0,0,1,674.53,84Zm443.1-.88a2.48,2.48,0,0,1-1.81-.78c-1.49-1.59-3-3.18-4.54-4.73a2.48,2.48,0,1,1,3.54-3.48c1.54,1.58,3.1,3.2,4.62,4.81a2.48,2.48,0,0,1-1.81,4.18ZM685.2,76.22a2.48,2.48,0,0,1-1.43-4.51q2.68-1.9,5.48-3.79A2.48,2.48,0,0,1,692,72c-1.83,1.25-3.63,2.49-5.4,3.74A2.44,2.44,0,0,1,685.2,76.22Zm423.16-2.5a2.45,2.45,0,0,1-1.73-.7c-1.56-1.52-3.16-3-4.75-4.53a2.48,2.48,0,0,1,3.38-3.63c1.62,1.51,3.24,3.06,4.83,4.61a2.48,2.48,0,0,1-1.73,4.25ZM696.15,68.78a2.48,2.48,0,0,1-1.36-4.55c1.84-1.21,3.71-2.4,5.6-3.59a2.48,2.48,0,1,1,2.64,4.2q-2.81,1.75-5.53,3.54A2.5,2.5,0,0,1,696.15,68.78Zm402.53-4.08a2.47,2.47,0,0,1-1.65-.63c-1.64-1.46-3.3-2.91-4.94-4.3A2.48,2.48,0,1,1,1095.3,56c1.67,1.42,3.36,2.89,5,4.38a2.48,2.48,0,0,1-1.65,4.33Zm-391.33-3a2.48,2.48,0,0,1-1.28-4.61q2.82-1.7,5.73-3.38a2.48,2.48,0,1,1,2.48,4.29q-2.87,1.66-5.65,3.34A2.48,2.48,0,0,1,707.35,61.75Zm381.25-5.62a2.48,2.48,0,0,1-1.56-.55c-1.69-1.37-3.42-2.74-5.14-4.07a2.48,2.48,0,1,1,3-3.93c1.75,1.36,3.51,2.75,5.23,4.14a2.48,2.48,0,0,1-1.56,4.41Zm-369.81-1a2.48,2.48,0,0,1-1.2-4.65q2.88-1.61,5.84-3.19a2.48,2.48,0,0,1,2.34,4.38q-2.92,1.56-5.77,3.14A2.41,2.41,0,0,1,718.79,55.12Zm11.68-6.23a2.48,2.48,0,0,1-1.13-4.69q2.94-1.5,5.95-3a2.48,2.48,0,1,1,2.18,4.46q-3,1.44-5.88,2.93A2.37,2.37,0,0,1,730.47,48.89Zm347.65-.84a2.47,2.47,0,0,1-1.46-.47c-1.76-1.3-3.56-2.57-5.34-3.81a2.48,2.48,0,0,1,2.83-4.07c1.81,1.25,3.64,2.56,5.44,3.87a2.48,2.48,0,0,1-1.47,4.48Zm-335.77-5a2.48,2.48,0,0,1-1.05-4.73c2-.93,4-1.86,6.05-2.77a2.48,2.48,0,1,1,2,4.53q-3,1.35-6,2.73A2.47,2.47,0,0,1,742.35,43.09Zm324.9-2.57a2.43,2.43,0,0,1-1.36-.41c-1.83-1.19-3.68-2.38-5.52-3.51a2.48,2.48,0,1,1,2.6-4.22c1.88,1.16,3.77,2.36,5.64,3.58a2.48,2.48,0,0,1-1.36,4.56ZM754.43,37.69a2.48,2.48,0,0,1-1-4.76q3-1.29,6.15-2.55A2.48,2.48,0,1,1,761.46,35q-3.06,1.24-6.06,2.53A2.58,2.58,0,0,1,754.43,37.69ZM1056,33.58a2.44,2.44,0,0,1-1.24-.34c-1.88-1.09-3.81-2.16-5.71-3.19a2.48,2.48,0,0,1,2.36-4.36c1.95,1,3.91,2.15,5.83,3.26a2.48,2.48,0,0,1-1.24,4.63Zm-289.31-.86a2.48,2.48,0,0,1-.89-4.79c2.05-.79,4.13-1.58,6.23-2.34a2.48,2.48,0,1,1,1.7,4.65q-3.11,1.14-6.15,2.32A2.5,2.5,0,0,1,766.68,32.72Zm12.42-4.55a2.48,2.48,0,0,1-.81-4.82q3.12-1.08,6.3-2.13a2.48,2.48,0,0,1,1.55,4.71c-2.1.69-4.17,1.39-6.23,2.11A2.54,2.54,0,0,1,779.1,28.17Zm265.25-.88a2.49,2.49,0,0,1-1.11-.27c-2-1-3.93-1.93-5.88-2.84a2.48,2.48,0,1,1,2.09-4.5c2,.93,4,1.91,6,2.91a2.48,2.48,0,0,1-1.12,4.7ZM791.66,24a2.48,2.48,0,0,1-.73-4.85c2.1-.65,4.23-1.29,6.37-1.92A2.48,2.48,0,0,1,798.69,22c-2.12.62-4.21,1.25-6.29,1.89A2.37,2.37,0,0,1,791.66,24Zm240.7-2.32a2.38,2.38,0,0,1-1-.2c-2-.85-4-1.67-6.05-2.45a2.48,2.48,0,1,1,1.79-4.63c2.06.8,4.15,1.65,6.2,2.52a2.48,2.48,0,0,1-1,4.76Zm-228-1.39a2.48,2.48,0,0,1-.66-4.87q3.19-.87,6.43-1.71a2.48,2.48,0,0,1,1.23,4.81q-3.2.82-6.35,1.69A2.46,2.46,0,0,1,804.36,20.33ZM817.16,17a2.48,2.48,0,0,1-.57-4.89q3.21-.78,6.48-1.5a2.48,2.48,0,0,1,1.08,4.84q-3.23.72-6.41,1.48A2.3,2.3,0,0,1,817.16,17ZM1020,17a2.36,2.36,0,0,1-.82-.14c-2.06-.71-4.14-1.4-6.2-2a2.48,2.48,0,1,1,1.47-4.74c2.11.65,4.25,1.35,6.36,2.09A2.48,2.48,0,0,1,1020,17Zm-190-2.79a2.48,2.48,0,0,1-.5-4.91q3.24-.67,6.52-1.3a2.48,2.48,0,0,1,.93,4.88q-3.24.62-6.45,1.28A2.83,2.83,0,0,1,830.07,14.16Zm177.32-1.1a2.35,2.35,0,0,1-.64-.09c-2.11-.57-4.24-1.1-6.33-1.57a2.48,2.48,0,0,1,1.11-4.84c2.15.49,4.34,1,6.51,1.62a2.48,2.48,0,0,1-.65,4.88ZM843.06,11.68a2.48,2.48,0,0,1-.42-4.92q3.25-.57,6.55-1.09a2.48,2.48,0,0,1,.78,4.9c-2.17.34-4.34.7-6.48,1.08Zm151.45-1.57a2.38,2.38,0,0,1-.46,0c-2.14-.4-4.31-.76-6.42-1.07a2.48,2.48,0,1,1,.71-4.91c2.19.32,4.41.69,6.62,1.1a2.48,2.48,0,0,1-.45,4.92Zm-138.39-.5a2.48,2.48,0,0,1-.35-4.94q3.27-.46,6.59-.89A2.48,2.48,0,0,1,863,8.7q-3.29.42-6.52.89ZM981.43,8.2h-.27q-3.3-.36-6.55-.68a2.48,2.48,0,1,1,.48-4.93c2.19.21,4.39.44,6.6.67a2.48,2.48,0,0,1-.26,4.95ZM869.24,7.93A2.48,2.48,0,0,1,869,3c2.19-.24,4.39-.48,6.61-.7a2.48,2.48,0,0,1,.49,4.94q-3.3.33-6.54.69Zm99-1h-.21c-2.2-.19-4.38-.36-6.56-.52a2.48,2.48,0,0,1,.36-4.95c2.2.16,4.4.34,6.62.52a2.48,2.48,0,0,1-.21,5Zm-85.86-.3a2.48,2.48,0,0,1-.21-4.95q3.3-.27,6.63-.51a2.48,2.48,0,0,1,.35,5q-3.3.22-6.56.5ZM955.08,6h-.16l-6.57-.36a2.48,2.48,0,1,1,.24-4.95c2.2.1,4.41.23,6.63.36a2.48,2.48,0,0,1-.14,5Zm-59.49-.25a2.48,2.48,0,0,1-.14-4.95c2.2-.13,4.42-.23,6.64-.33a2.48,2.48,0,1,1,.21,5q-3.3.14-6.57.32Zm46.28-.4h-.1q-3.3-.12-6.57-.2a2.47,2.47,0,0,1-2.42-2.54A2.46,2.46,0,0,1,935.32.15q3.3.08,6.64.2a2.48,2.48,0,0,1-.09,5ZM908.8,5.16a2.48,2.48,0,0,1-.06-5q3.3-.09,6.64-.14h0a2.48,2.48,0,0,1,0,5q-3.3,0-6.57.14ZM928.64,5h0l-5.73,0H922a2.48,2.48,0,1,1,0-5h.86l5.78,0a2.48,2.48,0,0,1,0,5Z"/><path class="cls-20" d="M2628.08,1248.79s-134,.22-338.28.66c-3.05-1.31-4.68-2.07-4.68-2.07S2308.21,1121,2428,1093.92s121.22-142.89,196-166c61.53-19,116.53,6.1,153.89-.32C2837,1114.4,2628.08,1248.79,2628.08,1248.79Z"/><path class="cls-21" d="M849.86,788.22s-1.53,1.63-4.36,4.68c-10.35,11.22-38.44,41.72-69.37,76.79-7.3,8.27-14.82,16.88-22.33,25.48-11.22,13-22.22,25.92-32.46,38.45l-.1.1c-3.16,3.71-6.1,7.3-9,10.89-6.1,7.52-11.77,14.71-17,21.46-15.69,20.48-26.69,37-28.76,45.42-12.52,52.38,11.87,199.85,18.19,235.9H342.44c10.35-74.93,24.73-180.79,26.58-196.91,2.83-25.38-85.71-134.29-87.24-213.79s51.08-136.25,59.36-214.45c4-36.81-.55-84.73-6.43-125.57-3-21.68-6.64-41.06-9.47-55.77a20.42,20.42,0,0,1,5.44-18.4,17.9,17.9,0,0,1,3.92-3.16,20.08,20.08,0,0,1,19.28-1.52c19.6,8.38,41.39,30.6,47.05,86,0,0,16.44,10.35,43,27.23,10.78,6.76,23.2,14.6,36.92,23.31,10.56,6.64,21.89,13.83,33.76,21.35.76.43,1.53,1,2.29,1.41,4.79,3.05,9.47,6.1,14.48,9.26h.11c1.75,1.09,3.49,2.29,5.34,3.38q4.74,3.09,9.8,6.2a12.72,12.72,0,0,0,2.07,1.2c21.57,13.72,44.11,28.1,66.87,42.59h.11c3.7,2.17,7.41,4.57,11.11,7,2.83,1.85,5.77,3.59,8.71,5.44,3.6,2.4,7.3,4.68,11,7h.11c25.81,16.34,51.08,32.46,74.71,47.38,3.71,2.39,7.41,4.68,11,7,2.94,1.85,5.78,3.7,8.61,5.44,3.81,2.4,7.29,4.69,10.89,7.08H752c45.09,28.43,79.94,50.65,92.68,58.81C848,787,849.86,788.11,849.86,788.22Z"/><path class="cls-22" d="M352.15,477.52a17.78,17.78,0,0,1-15,18.75l-2.37.35c-3.11-21.58-6.65-41-9.48-55.74-1.4-7.19-3.55-14.1-2.94-21.46,14.89-7.28,20.62,10.33,22.45,17.48C347.83,448.51,351.31,464.14,352.15,477.52Z"/><path class="cls-23" d="M753.8,895.17c-11.22,13-22.22,25.92-32.46,38.45l-.1.1c-3.16,3.71-6.1,7.3-9,10.89-6.1,7.52-11.77,14.71-17,21.46-15.69,20.48-26.69,37-28.76,45.42-12.52,52.38,11.87,199.85,18.19,235.9H462c41.28-61.54,46.61-169.9,46.94-219.67.11-12.53,4.14-27.56,10.67-43.46,12.42-30.71,33.76-65.13,53.37-93.56,18.08-26.35,34.74-47.48,41.49-55.87v-.1c2.18-2.51,3.27-3.93,3.27-3.93l123.07-5.22H741l1.63,8.71,1.31,7.4,5.66,30.72Z"/><path class="cls-18" d="M840.64,951,472.31,989.11a21.18,21.18,0,0,1-23.17-18.83L373,233.71a21.17,21.17,0,0,1,18.83-23.16l368.33-38.07a21.17,21.17,0,0,1,23.16,18.83l76.12,736.57A21.16,21.16,0,0,1,840.64,951Z"/><path class="cls-24" d="M880.41,946.93,512.09,985a21.17,21.17,0,0,1-23.17-18.83L412.8,229.6a21.15,21.15,0,0,1,18.82-23.16L800,168.37a21.18,21.18,0,0,1,23.17,18.83l76.12,736.57A21.17,21.17,0,0,1,880.41,946.93Z"/><path class="cls-25" d="M683.54,214.38a4.18,4.18,0,0,0-4.58-3.72l-106.66,11a4.17,4.17,0,1,0,.86,8.3l106.66-11A4.19,4.19,0,0,0,683.54,214.38Z"/><path class="cls-25" d="M553.36,223.64a4.17,4.17,0,1,0,4.58,3.72A4.19,4.19,0,0,0,553.36,223.64Z"/><path class="cls-25" d="M723.65,919.66a26.91,26.91,0,1,0-24,29.53A26.9,26.9,0,0,0,723.65,919.66Z"/><rect class="cls-26" x="482.79" y="247.51" width="342.96" height="633.09" transform="matrix(0.99, -0.1, 0.1, 0.99, -54.52, 70.25)"/><rect class="cls-27" x="511.56" y="805.67" width="342.96" height="73.49" transform="translate(-82.98 74.68) rotate(-5.9)"/><path class="cls-24" d="M618.54,838.19,794.61,820a3.72,3.72,0,1,0-.77-7.4L617.78,830.79a3.73,3.73,0,0,0-3.32,4.09h0A3.73,3.73,0,0,0,618.54,838.19Z"/><path class="cls-24" d="M799.6,832.13a3.73,3.73,0,0,0-4.08-3.32L619.45,847a3.72,3.72,0,1,0,.77,7.4l176.06-18.2A3.73,3.73,0,0,0,799.6,832.13Z"/><path class="cls-18" d="M590.87,822.2a21.31,21.31,0,0,0-1.85-7,24.79,24.79,0,0,0-25.7-15.46,25.1,25.1,0,0,0-22.11,20.36,26.94,26.94,0,0,0-.33,7.3c1.42,13.72,29.62,41.82,29.62,41.82S592.29,836,590.87,822.2Zm-23.85,14a11.73,11.73,0,0,1-12.85-10.46,12.24,12.24,0,0,1,1.52-7.18,11.89,11.89,0,0,1,8.93-5.78,11.4,11.4,0,0,1,9.91,3.82,11.69,11.69,0,0,1-7.51,19.6Z"/><rect class="cls-18" x="507.25" y="345.33" width="197.75" height="163.06" transform="translate(1252.92 789.14) rotate(174.1)"/><rect class="cls-18" x="605.68" y="336.77" width="166.46" height="163.06" transform="translate(-39.35 73.03) rotate(-5.9)"/><polygon class="cls-28" points="775.83 449.71 780.08 490.84 614.5 507.95 597.74 345.76 775.83 449.71"/><polygon class="cls-29" points="512.02 476.97 543.19 473.75 539.53 465.26 541.63 458.71 510.46 461.93 512.02 476.97"/><polygon class="cls-29" points="505.27 411.64 536.44 408.42 532.78 399.94 534.88 393.38 503.71 396.61 505.27 411.64"/><polygon class="cls-30" points="769.08 384.38 737.91 387.6 739.75 378.55 736.36 372.56 767.52 369.34 769.08 384.38"/><path class="cls-29" d="M545.78,564.3a22.83,22.83,0,0,0-3.27-1.74,22.34,22.34,0,0,0-10.13-1.42,20.91,20.91,0,0,0-17.75,14.6,19.5,19.5,0,0,0-.87,8.38,21,21,0,0,0,23,18.63,19.29,19.29,0,0,0,12-5.56,20.25,20.25,0,0,0,6.64-17.43A20.7,20.7,0,0,0,545.78,564.3Zm.87,31.69a18.24,18.24,0,0,1-10.13,4.36,18.46,18.46,0,0,1-20.25-16.45,17.67,17.67,0,0,1,.65-6.75,18.14,18.14,0,0,1,15.79-13.61,16.27,16.27,0,0,1,8.6,1.31,13.63,13.63,0,0,1,3.6,1.85A18.44,18.44,0,0,1,546.65,596Z"/><polygon class="cls-18" points="522.49 572.46 535.74 593.07 553.49 542.05 534.19 578.06 522.49 572.46"/><path class="cls-29" d="M563.32,656.55A21,21,0,0,0,553.73,641a32.7,32.7,0,0,0-3.27-1.74,22.39,22.39,0,0,0-10.12-1.41,20.91,20.91,0,1,0,23,18.73Zm-19,20.47a18.44,18.44,0,1,1-3.7-36.7,17.4,17.4,0,0,1,8.6,1.2,13.93,13.93,0,0,1,3.6,1.85,18.32,18.32,0,0,1,8.06,13.4A18.62,18.62,0,0,1,544.36,677Z"/><polygon class="cls-18" points="530.41 649.15 543.66 669.76 561.41 618.74 542.11 654.75 530.41 649.15"/><path class="cls-29" d="M571.26,733.22a20.91,20.91,0,1,0-18.62,23A21,21,0,0,0,571.26,733.22Zm-19,20.48a18.45,18.45,0,1,1,16.45-20.26A18.46,18.46,0,0,1,552.31,753.7Z"/><path class="cls-29" d="M782.84,553l-197,20.35a3.65,3.65,0,0,1-4-3.25l-.08-.8a3.65,3.65,0,0,1,3.25-4l197-20.36a3.67,3.67,0,0,1,4,3.25l.08.81A3.66,3.66,0,0,1,782.84,553Z"/><path class="cls-29" d="M784.32,567.34l-197,20.35a3.64,3.64,0,0,1-4-3.25l-.09-.8a3.66,3.66,0,0,1,3.25-4l197-20.36a3.67,3.67,0,0,1,4,3.26l.08.8A3.65,3.65,0,0,1,784.32,567.34Z"/><path class="cls-29" d="M790.78,629.82l-197,20.35a3.66,3.66,0,0,1-4-3.25l-.08-.8a3.66,3.66,0,0,1,3.25-4l197-20.35a3.67,3.67,0,0,1,4,3.25l.08.81A3.67,3.67,0,0,1,790.78,629.82Z"/><path class="cls-29" d="M792.26,644.16l-197,20.35a3.66,3.66,0,0,1-4-3.25l-.08-.8a3.65,3.65,0,0,1,3.25-4l197-20.36a3.67,3.67,0,0,1,4,3.25l.08.8A3.66,3.66,0,0,1,792.26,644.16Z"/><path class="cls-29" d="M798.72,706.63,601.76,727a3.67,3.67,0,0,1-4-3.25l-.08-.81a3.66,3.66,0,0,1,3.25-4l197-20.35a3.66,3.66,0,0,1,4,3.25l.08.8A3.65,3.65,0,0,1,798.72,706.63Z"/><path class="cls-29" d="M800.2,721l-197,20.35a3.66,3.66,0,0,1-4-3.25l-.08-.8a3.66,3.66,0,0,1,3.25-4l197-20.35a3.66,3.66,0,0,1,4,3.25l.08.8A3.66,3.66,0,0,1,800.2,721Z"/><path class="cls-21" d="M833.63,289.63s53.46-47.5,88.53-20.54-78.89,113.79-78.89,113.79Z"/><path class="cls-21" d="M895.49,484.59,833.36,519a37.53,37.53,0,0,1-50.86-14.63L772.35,486A37.54,37.54,0,0,1,787,435.12l62.12-34.36A37.52,37.52,0,0,1,900,415.39l10.15,18.34A37.53,37.53,0,0,1,895.49,484.59Z"/><path class="cls-21" d="M906.24,588.68,844.12,623a37.53,37.53,0,0,1-50.86-14.63l-10.15-18.34a37.53,37.53,0,0,1,14.63-50.86l62.13-34.37a37.54,37.54,0,0,1,50.86,14.63l10.14,18.35A37.53,37.53,0,0,1,906.24,588.68Z"/><path class="cls-21" d="M916.71,690l-62.12,34.37a37.54,37.54,0,0,1-50.86-14.63l-10.15-18.35a37.54,37.54,0,0,1,14.63-50.86l62.13-34.36a37.52,37.52,0,0,1,50.85,14.63l10.15,18.34A37.53,37.53,0,0,1,916.71,690Z"/><path class="cls-22" d="M775.29,461.43c9.64-7.25,22.79-16.38,34.84-22.13a17.81,17.81,0,0,1,23,6.8l13.62,22.76a16.83,16.83,0,0,1-5.55,23,301.07,301.07,0,0,1-37,19.66A20.72,20.72,0,0,1,778,502.59l-8.27-14.65A20.51,20.51,0,0,1,775.29,461.43Z"/><path class="cls-22" d="M786.34,568.38c9.64-7.25,22.79-16.37,34.84-22.12a17.8,17.8,0,0,1,23,6.8l13.62,22.76a16.83,16.83,0,0,1-5.54,23,300.59,300.59,0,0,1-37,19.65,20.71,20.71,0,0,1-26.21-8.9l-8.27-14.66A20.52,20.52,0,0,1,786.34,568.38Z"/><path class="cls-22" d="M798.67,668.63c9.64-7.25,22.8-16.38,34.84-22.13a17.81,17.81,0,0,1,23,6.8l13.62,22.77a16.83,16.83,0,0,1-5.54,23,301.07,301.07,0,0,1-37,19.66,20.73,20.73,0,0,1-26.22-8.91l-8.27-14.65A20.52,20.52,0,0,1,798.67,668.63Z"/><polygon class="cls-18" points="1134.66 1000.73 1278.28 1023.33 1183.72 956.87 1178.56 977.66 1143.47 983.5 1134.66 1000.73"/><polygon class="cls-24" points="1278.28 1023.33 1159.41 959.86 1042.12 952.27 1278.28 1023.33"/><polygon class="cls-24" points="1183.72 956.87 1278.28 1023.33 1205.81 920.54 1183.72 956.87"/><polygon class="cls-18" points="973.16 129.7 861.63 72.23 961.36 74.14 954.35 91.26 975.81 113.21 973.16 129.7"/><polygon class="cls-24" points="861.63 72.23 976.76 88.62 1062.31 143.12 861.63 72.23"/><polygon class="cls-24" points="961.36 74.14 861.63 72.23 964.49 37.58 961.36 74.14"/></g></g></svg>